<svg width="32" height="32" viewBox="0 0 32 32" fill="none" xmlns="http://www.w3.org/2000/svg">
<path d="M8.62243 16.0633C8.51389 15.9541 8.38483 15.8675 8.24267 15.8083C8.10052 15.7492 7.94807 15.7187 7.79411 15.7188C7.64014 15.7187 7.4877 15.7492 7.34554 15.8083C7.20338 15.8675 7.07432 15.9541 6.96578 16.0633L6.03303 16.9914C5.92381 17.1004 5.83715 17.2299 5.77803 17.3724C5.71891 17.515 5.68848 17.6678 5.68848 17.8221C5.68848 17.9764 5.71891 18.1292 5.77803 18.2717C5.83715 18.4143 5.92381 18.5437 6.03303 18.6527L10.8499 23.4696C11.0706 23.6892 11.3692 23.8125 11.6806 23.8125C11.9919 23.8125 12.2905 23.6892 12.5112 23.4696L13.4393 22.5369C13.5485 22.4283 13.6352 22.2993 13.6943 22.1571C13.7534 22.015 13.7839 21.8625 13.7839 21.7085C13.7839 21.5546 13.7534 21.4021 13.6943 21.26C13.6352 21.1178 13.5485 20.9887 13.4393 20.8802L8.62243 16.0633Z" fill="url(#paint0_linear_7571_99802)"/>
<path d="M6.08828 20.022L3.43853 22.6717C3.15762 22.955 3 23.3378 3 23.7367C3 24.1357 3.15762 24.5185 3.43853 24.8017L4.63115 25.9897C4.77068 26.1293 4.93634 26.2401 5.11868 26.3156C5.30102 26.3912 5.49646 26.4301 5.69384 26.4301C5.89121 26.4301 6.08665 26.3912 6.26899 26.3156C6.45133 26.2401 6.617 26.1293 6.75652 25.9897L9.40628 23.34C8.97552 22.9031 6.08828 20.022 6.08828 20.022Z" fill="url(#paint1_linear_7571_99802)"/>
<path d="M26.0421 16.9914L25.1093 16.0633C25.0003 15.9541 24.8708 15.8674 24.7283 15.8083C24.5858 15.7492 24.433 15.7188 24.2787 15.7188C24.1244 15.7188 23.9716 15.7492 23.829 15.8083C23.6865 15.8674 23.557 15.9541 23.448 16.0633L18.6311 20.8802C18.4126 21.1005 18.29 21.3982 18.29 21.7085C18.29 22.0188 18.4126 22.3165 18.6311 22.5369L19.5639 23.4696C19.785 23.6884 20.0835 23.8111 20.3945 23.8111C20.7056 23.8111 21.0041 23.6884 21.2252 23.4696L26.0421 18.6527C26.2606 18.4315 26.3832 18.133 26.3832 17.8221C26.3832 17.5111 26.2606 17.2127 26.0421 16.9914Z" fill="url(#paint2_linear_7571_99802)"/>
<path d="M8.43125 11.8171L18.5059 19.6922L19.1648 19.0332C19.6519 18.5483 21.8241 16.3723 22.2647 15.9333L14.3897 5.86332C14.1752 5.59056 13.9009 5.37083 13.5878 5.22115C13.2748 5.07147 12.9315 4.99586 12.5845 5.00017L8.95563 5.04194C8.60054 5.04646 8.26135 5.18984 8.01068 5.44138C7.76001 5.69291 7.6178 6.0326 7.61451 6.3877L7.57274 10.0166C7.56556 10.3629 7.63945 10.706 7.78851 11.0187C7.93757 11.3313 8.15768 11.6047 8.43125 11.8171Z" fill="url(#paint3_linear_7571_99802)"/>
<path d="M10.7096 14.7778L9.80469 15.9287C10.2348 16.3584 13.5682 19.6922 13.5682 19.6922L15.2805 18.3511C14.8068 17.9789 10.7096 14.7778 10.7096 14.7778Z" fill="url(#paint4_linear_7571_99802)"/>
<path d="M21.5225 13.4741L23.6432 11.8174C23.9166 11.6037 24.1364 11.3294 24.2854 11.0161C24.4344 10.7028 24.5085 10.3591 24.5017 10.0122L24.46 6.3833C24.4536 6.028 24.309 5.68919 24.0568 5.43879C23.8047 5.18839 23.4649 5.04612 23.1096 5.04218L19.4853 5.00041C19.1391 4.99376 18.7961 5.06789 18.4836 5.21691C18.171 5.36593 17.8975 5.58575 17.6848 5.85891L16.6221 7.21395C16.8901 7.53947 21.5225 13.4741 21.5225 13.4741Z" fill="url(#paint5_linear_7571_99802)"/>
<path d="M28.5625 22.7462L25.9127 20.0918C25.4781 20.5268 22.5947 23.4144 22.5947 23.4144L25.2445 26.0642C25.3839 26.2039 25.5496 26.3148 25.7319 26.3905C25.9143 26.4661 26.1097 26.505 26.3072 26.505C26.5046 26.505 26.7001 26.4661 26.8824 26.3905C27.0648 26.3148 27.2304 26.2039 27.3699 26.0642L28.5625 24.8716C28.8427 24.5889 29 24.2069 29 23.8089C29 23.4108 28.8427 23.0289 28.5625 22.7462Z" fill="url(#paint6_linear_7571_99802)"/>
<defs>
<linearGradient id="paint0_linear_7571_99802" x1="8.1173" y1="16.3192" x2="11.4896" y2="23.4962" gradientUnits="userSpaceOnUse">
<stop stop-color="#FFFF18"/>
<stop offset="0.2203" stop-color="#FFCB0E"/>
<stop offset="0.5007" stop-color="#FF8300"/>
<stop offset="0.8867" stop-color="#FF6000"/>
<stop offset="1" stop-color="#FF9700"/>
</linearGradient>
<linearGradient id="paint1_linear_7571_99802" x1="4.92205" y1="20.4974" x2="7.59283" y2="26.1786" gradientUnits="userSpaceOnUse">
<stop stop-color="#FFFF18"/>
<stop offset="0.2203" stop-color="#FFCB0E"/>
<stop offset="0.5007" stop-color="#FF8300"/>
<stop offset="0.8867" stop-color="#FF6000"/>
<stop offset="1" stop-color="#FF9700"/>
</linearGradient>
<linearGradient id="paint2_linear_7571_99802" x1="20.7182" y1="16.3191" x2="24.0901" y2="23.4945" gradientUnits="userSpaceOnUse">
<stop stop-color="#FFFF18"/>
<stop offset="0.2203" stop-color="#FFCB0E"/>
<stop offset="0.5007" stop-color="#FF8300"/>
<stop offset="0.8867" stop-color="#FF6000"/>
<stop offset="1" stop-color="#FF9700"/>
</linearGradient>
<linearGradient id="paint3_linear_7571_99802" x1="11.9804" y1="6.09001" x2="18.1026" y2="19.117" gradientUnits="userSpaceOnUse">
<stop stop-color="#FFFF18"/>
<stop offset="0.2203" stop-color="#FFCB0E"/>
<stop offset="0.5007" stop-color="#FF8300"/>
<stop offset="0.8867" stop-color="#FF6000"/>
<stop offset="1" stop-color="#FF9700"/>
</linearGradient>
<linearGradient id="paint4_linear_7571_99802" x1="11.4476" y1="15.1424" x2="13.3525" y2="19.6587" gradientUnits="userSpaceOnUse">
<stop stop-color="#FFFF18"/>
<stop offset="0.2203" stop-color="#FFCB0E"/>
<stop offset="0.5007" stop-color="#FF8300"/>
<stop offset="0.8867" stop-color="#FF6000"/>
<stop offset="1" stop-color="#FF9700"/>
</linearGradient>
<linearGradient id="paint5_linear_7571_99802" x1="18.9863" y1="5.62869" x2="22.6791" y2="12.9355" gradientUnits="userSpaceOnUse">
<stop stop-color="#FFFF18"/>
<stop offset="0.2203" stop-color="#FFCB0E"/>
<stop offset="0.5007" stop-color="#FF8300"/>
<stop offset="0.8867" stop-color="#FF6000"/>
<stop offset="1" stop-color="#FF9700"/>
</linearGradient>
<linearGradient id="paint6_linear_7571_99802" x1="24.5165" y1="20.5676" x2="27.191" y2="26.2514" gradientUnits="userSpaceOnUse">
<stop stop-color="#FFFF18"/>
<stop offset="0.2203" stop-color="#FFCB0E"/>
<stop offset="0.5007" stop-color="#FF8300"/>
<stop offset="0.8867" stop-color="#FF6000"/>
<stop offset="1" stop-color="#FF9700"/>
</linearGradient>
</defs>
</svg>
