<svg width="32" height="32" viewBox="0 0 32 32" fill="none" xmlns="http://www.w3.org/2000/svg">
<path d="M20.8762 20.002C21.7739 20.002 22.5015 19.2743 22.5015 18.3767C22.5015 17.4791 21.7739 16.7515 20.8762 16.7515C19.9786 16.7515 19.251 17.4791 19.251 18.3767C19.251 19.2743 19.9786 20.002 20.8762 20.002Z" fill="#767676"/>
<path d="M11.1243 20.002C12.0219 20.002 12.7496 19.2743 12.7496 18.3767C12.7496 17.4791 12.0219 16.7515 11.1243 16.7515C10.2267 16.7515 9.49902 17.4791 9.49902 18.3767C9.49902 19.2743 10.2267 20.002 11.1243 20.002Z" fill="#767676"/>
<path d="M13.4636 11.7995C13.4749 11.8446 13.5156 11.876 13.562 11.876H18.4378C18.4843 11.876 18.5249 11.8446 18.5363 11.7995L19.3556 8.81823C19.3823 8.72123 19.3093 8.62549 19.2087 8.62549H12.7911C12.6905 8.62549 12.6175 8.72123 12.6442 8.81823L13.4636 11.7995Z" fill="#767676"/>
<path d="M27.5595 12.8177C26.8077 10.7347 25.9539 9.56147 25.5119 9.04753C25.3589 8.86966 25.1594 8.74244 24.9389 8.67661V8.21895C24.9389 7.54573 24.3932 7 23.72 7H22.0947C21.4215 7 20.8757 7.54573 20.8757 8.21895V8.62526H20.3675C20.2989 8.62526 20.2387 8.67113 20.2206 8.73726L19.3234 12.0012C19.2197 12.4061 18.8563 12.6884 18.4378 12.6884H13.5621C13.1436 12.6884 12.7802 12.4061 12.6765 12.0012L11.7793 8.73726C11.7612 8.67113 11.701 8.62526 11.6324 8.62526H11.1242V8.21895C11.1242 7.54573 10.5784 7 9.9052 7H8.27994C7.60672 7 7.06099 7.54573 7.06099 8.21895V8.67661C6.84041 8.74244 6.64096 8.86966 6.48798 9.04753C6.04596 9.56147 5.19224 10.7347 4.4404 12.8177C3.52086 15.3653 3.03623 18.4584 3.00006 22.011C2.996 22.4087 3.18687 22.7841 3.51065 23.0154L5.39291 24.3598C5.91381 24.7319 6.63944 24.6352 7.04484 24.1398L9.91704 20.6293C9.95635 20.5813 9.94375 20.5096 9.89027 20.4781C9.11538 20.0214 8.61347 19.1489 8.69494 18.1694C8.79337 16.9858 9.75248 16.0349 10.9368 15.9459C12.3653 15.8385 13.5621 16.9705 13.5621 18.3768C13.5621 19.1178 13.2296 19.7824 12.7061 20.2298C12.6344 20.2912 12.6775 20.4083 12.7719 20.4083H19.228C19.3225 20.4083 19.3654 20.291 19.2935 20.2296C18.722 19.7409 18.3782 18.9933 18.4464 18.1701C18.5445 16.9864 19.5029 16.0355 20.6873 15.946C22.1163 15.8379 23.3137 16.9701 23.3137 18.3767C23.3137 19.2711 22.8293 20.054 22.1094 20.4782C22.0561 20.5096 22.0438 20.5813 22.083 20.6292L24.9552 24.1397C25.1946 24.4323 25.5456 24.5858 25.9004 24.5858C26.1462 24.5858 26.3938 24.512 26.6071 24.3597L28.4893 23.0153C28.8131 22.784 29.004 22.4085 28.9999 22.0109C28.9637 18.4584 28.479 15.3652 27.5595 12.8177ZM7.46726 13.2979H7.06094C6.83655 13.2979 6.65462 13.1159 6.65462 12.8915C6.65462 12.6671 6.83655 12.4852 7.06094 12.4852H7.46726C7.69165 12.4852 7.87357 12.6671 7.87357 12.8915C7.87357 13.1159 7.6917 13.2979 7.46726 13.2979ZM8.88936 14.3136C8.88936 14.538 8.70744 14.72 8.48305 14.72C8.25866 14.72 8.07673 14.538 8.07673 14.3136V13.9073C8.07673 13.6829 8.25866 13.501 8.48305 13.501C8.70744 13.501 8.88936 13.6829 8.88936 13.9073V14.3136ZM8.88936 11.8757C8.88936 12.1001 8.70744 12.2821 8.48305 12.2821C8.25866 12.2821 8.07673 12.1001 8.07673 11.8757V11.4694C8.07673 11.245 8.25866 11.0631 8.48305 11.0631C8.70744 11.0631 8.88936 11.245 8.88936 11.4694V11.8757ZM9.90515 13.2979H9.49884C9.27445 13.2979 9.09252 13.1159 9.09252 12.8915C9.09252 12.6671 9.27445 12.4852 9.49884 12.4852H9.90515C10.1295 12.4852 10.3115 12.6671 10.3115 12.8915C10.3115 13.1159 10.1296 13.2979 9.90515 13.2979ZM22.0946 13.501C21.8703 13.501 21.6883 13.3191 21.6883 13.0947C21.6883 12.8703 21.8703 12.6884 22.0946 12.6884C22.319 12.6884 22.501 12.8703 22.501 13.0947C22.501 13.3191 22.3191 13.501 22.0946 13.501ZM23.3136 14.72C23.0892 14.72 22.9073 14.538 22.9073 14.3136C22.9073 14.0893 23.0892 13.9073 23.3136 13.9073C23.538 13.9073 23.7199 14.0893 23.7199 14.3136C23.7199 14.538 23.538 14.72 23.3136 14.72ZM23.3136 12.2821C23.0892 12.2821 22.9073 12.1001 22.9073 11.8757C22.9073 11.6514 23.0892 11.4694 23.3136 11.4694C23.538 11.4694 23.7199 11.6514 23.7199 11.8757C23.7199 12.1001 23.538 12.2821 23.3136 12.2821ZM24.5325 13.501C24.3082 13.501 24.1262 13.3191 24.1262 13.0947C24.1262 12.8703 24.3082 12.6884 24.5325 12.6884C24.7569 12.6884 24.9389 12.8703 24.9389 13.0947C24.9389 13.3191 24.757 13.501 24.5325 13.501Z" fill="#767676"/>
</svg>
