<svg width="32" height="32" viewBox="0 0 32 32" fill="none" xmlns="http://www.w3.org/2000/svg">
<path d="M4 18.5312V27.2969C4 27.6852 4.31481 28 4.70312 28H27.2969C27.6852 28 28 27.6852 28 27.2969V18.5312H4ZM25.1875 24.4844C25.1875 24.8727 24.8727 25.1875 24.4844 25.1875H7.51562C7.12731 25.1875 6.8125 24.8727 6.8125 24.4844V20.6406C6.8125 20.2523 7.12731 19.9375 7.51562 19.9375H24.4844C24.8727 19.9375 25.1875 20.2523 25.1875 20.6406V24.4844Z" fill="url(#paint0_linear_7571_99835)"/>
<path d="M8.21875 21.3438H23.7812V23.7812H8.21875V21.3438Z" fill="url(#paint1_linear_7571_99835)"/>
<path d="M16.9004 10.4277C16.9312 10.2445 16.9438 9.80785 16.4365 9.59424V11.0999C16.7002 10.9489 16.8577 10.6818 16.9004 10.4277Z" fill="url(#paint2_linear_7571_99835)"/>
<path d="M15.499 7.18311C15.3559 7.29279 15.2771 7.45887 15.2499 7.60292C15.2125 7.80162 15.2599 7.98621 15.3708 8.07312C15.4098 8.10373 15.4529 8.13382 15.499 8.1634V7.18311Z" fill="url(#paint3_linear_7571_99835)"/>
<path d="M16 14.3125C18.8477 14.3125 21.1562 12.004 21.1562 9.15625C21.1562 6.30855 18.8477 4 16 4C13.1523 4 10.8438 6.30855 10.8438 9.15625C10.8438 12.004 13.1523 14.3125 16 14.3125ZM14.2263 11.072C14.368 10.8554 14.6586 10.7947 14.8752 10.9363C15.1284 11.1019 15.2871 11.1739 15.4989 11.2037V9.22394C15.1995 9.08673 14.9757 8.95469 14.7921 8.81064C14.4031 8.50558 14.2255 7.97622 14.3286 7.42914C14.4409 6.83298 14.8559 6.3587 15.4115 6.19131C15.4409 6.18245 15.47 6.17434 15.4989 6.16666V5.875C15.4989 5.61616 15.7088 5.40625 15.9677 5.40625C16.2265 5.40625 16.4364 5.61616 16.4364 5.875V6.11533C16.8915 6.19412 17.2132 6.41814 17.369 6.59702C17.539 6.7922 17.5186 7.08831 17.3234 7.25833C17.1293 7.42745 16.8353 7.40823 16.6648 7.21591C16.6541 7.20508 16.5796 7.13336 16.4364 7.08058V8.5952C16.5196 8.62609 16.6028 8.65605 16.6844 8.68492C17.5083 8.9762 17.9666 9.73895 17.8248 10.5829C17.7145 11.239 17.2153 11.9043 16.4364 12.1018V12.4375C16.4364 12.6963 16.2265 12.9062 15.9677 12.9062C15.7088 12.9062 15.4989 12.6963 15.4989 12.4375V12.1468C15.1204 12.1141 14.8067 12.0118 14.362 11.7209C14.1453 11.5791 14.0845 11.2886 14.2263 11.072Z" fill="url(#paint4_linear_7571_99835)"/>
<path d="M26.0888 11.9808C25.9931 11.6937 25.7244 11.5 25.4218 11.5H22.1294C21.7016 12.6151 20.9781 13.585 20.055 14.3125H22.0937C22.482 14.3125 22.7968 14.6273 22.7968 15.0156C22.7968 15.4039 22.482 15.7188 22.0937 15.7188H9.90618C9.51787 15.7188 9.20305 15.4039 9.20305 15.0156C9.20305 14.6273 9.51787 14.3125 9.90618 14.3125H11.9449C11.0218 13.585 10.2983 12.6151 9.87046 11.5H6.57805C6.27538 11.5 6.00674 11.6937 5.91102 11.9808L4.19629 17.125H27.8036L26.0888 11.9808Z" fill="url(#paint5_linear_7571_99835)"/>
<defs>
<linearGradient id="paint0_linear_7571_99835" x1="11.2006" y1="19.2337" x2="13.038" y2="29.143" gradientUnits="userSpaceOnUse">
<stop stop-color="#FFFF18"/>
<stop offset="0.2203" stop-color="#FFCB0E"/>
<stop offset="0.5007" stop-color="#FF8300"/>
<stop offset="0.8867" stop-color="#FF6000"/>
<stop offset="1" stop-color="#FF9700"/>
</linearGradient>
<linearGradient id="paint1_linear_7571_99835" x1="12.8879" y1="21.5246" x2="13.0811" y2="24.149" gradientUnits="userSpaceOnUse">
<stop stop-color="#FFFF18"/>
<stop offset="0.2203" stop-color="#FFCB0E"/>
<stop offset="0.5007" stop-color="#FF8300"/>
<stop offset="0.8867" stop-color="#FF6000"/>
<stop offset="1" stop-color="#FF9700"/>
</linearGradient>
<linearGradient id="paint2_linear_7571_99835" x1="16.5794" y1="9.70594" x2="17.3344" y2="10.214" gradientUnits="userSpaceOnUse">
<stop stop-color="#FFFF18"/>
<stop offset="0.2203" stop-color="#FFCB0E"/>
<stop offset="0.5007" stop-color="#FF8300"/>
<stop offset="0.8867" stop-color="#FF6000"/>
<stop offset="1" stop-color="#FF9700"/>
</linearGradient>
<linearGradient id="paint3_linear_7571_99835" x1="15.3158" y1="7.25583" x2="15.7715" y2="7.51467" gradientUnits="userSpaceOnUse">
<stop stop-color="#FFFF18"/>
<stop offset="0.2203" stop-color="#FFCB0E"/>
<stop offset="0.5007" stop-color="#FF8300"/>
<stop offset="0.8867" stop-color="#FF6000"/>
<stop offset="1" stop-color="#FF9700"/>
</linearGradient>
<linearGradient id="paint4_linear_7571_99835" x1="13.9378" y1="4.76508" x2="18.235" y2="13.9087" gradientUnits="userSpaceOnUse">
<stop stop-color="#FFFF18"/>
<stop offset="0.2203" stop-color="#FFCB0E"/>
<stop offset="0.5007" stop-color="#FF8300"/>
<stop offset="0.8867" stop-color="#FF6000"/>
<stop offset="1" stop-color="#FF9700"/>
</linearGradient>
<linearGradient id="paint5_linear_7571_99835" x1="11.2791" y1="11.9173" x2="11.9525" y2="17.931" gradientUnits="userSpaceOnUse">
<stop stop-color="#FFFF18"/>
<stop offset="0.2203" stop-color="#FFCB0E"/>
<stop offset="0.5007" stop-color="#FF8300"/>
<stop offset="0.8867" stop-color="#FF6000"/>
<stop offset="1" stop-color="#FF9700"/>
</linearGradient>
</defs>
</svg>
