<svg width="32" height="32" viewBox="0 0 32 32" fill="none" xmlns="http://www.w3.org/2000/svg">
<path d="M27.708 18.9751C27.7003 17.1904 27.6947 15.9008 26.8169 14.7663C25.8225 13.482 24.2888 13.2643 23.0454 13.2273C23.2548 12.33 23.3154 11.3351 23.2186 10.2596C23.192 6.67801 20.527 4.10357 16.8284 4.0015L16.7751 4L11.1179 4.0045L11.0571 4.00425C8.85689 4.00425 7.11775 4.66118 5.88769 5.95653C5.12644 6.75781 4.11528 8.15748 4.00821 10.4207L4.0037 19.5467C3.9927 19.7191 4.00996 19.8932 4.00771 20.072C4.00771 22.6685 4.42323 24.5375 5.72083 25.9186C7.01743 27.2998 8.93469 28 11.4186 28C11.4724 28 11.5266 27.9998 11.5809 27.999H20.2233H20.2439C22.4598 27.9805 24.3323 27.249 25.6589 25.8839C26.983 24.5212 27.696 22.5797 27.7203 20.2699C27.72 20.2699 27.7095 19.3401 27.708 18.9751V18.9751ZM11.5767 8.86744L16.4103 8.86169C17.5496 8.8797 18.4587 9.90012 18.4402 11.0394C18.4222 12.1674 17.5023 12.9904 16.3783 12.9904C16.3673 12.9904 11.5114 12.9924 11.5114 12.9924C10.3721 12.9741 9.46353 12.036 9.4818 10.8973C9.49981 9.75803 10.4359 8.85644 11.5767 8.86744V8.86744ZM20.6621 22.4451H10.995C9.85604 22.4451 8.93219 21.5217 8.93219 20.3823C8.93219 19.243 9.85604 18.3194 10.995 18.3194H20.6624C21.8019 18.3194 22.7252 19.243 22.7252 20.3823C22.7252 21.5217 21.8016 22.4451 20.6621 22.4451Z" fill="url(#paint0_linear_7571_99678)"/>
<defs>
<linearGradient id="paint0_linear_7571_99678" x1="11.1167" y1="5.78055" x2="21.1923" y2="26.9694" gradientUnits="userSpaceOnUse">
<stop stop-color="#FFFF18"/>
<stop offset="0.2203" stop-color="#FFCB0E"/>
<stop offset="0.5007" stop-color="#FF8300"/>
<stop offset="0.8867" stop-color="#FF6000"/>
<stop offset="1" stop-color="#FF9700"/>
</linearGradient>
</defs>
</svg>
