<svg width="52" height="52" viewBox="0 0 52 52" fill="none" xmlns="http://www.w3.org/2000/svg">
<path fill-rule="evenodd" clip-rule="evenodd" d="M39 52H13C11.2928 52.0002 9.60221 51.6641 8.02489 51.0108C6.44757 50.3576 5.01438 49.4 3.80718 48.1928C2.59998 46.9856 1.64242 45.5524 0.989175 43.9751C0.335932 42.3978 -0.000192014 40.7072 8.22917e-08 39V13C-0.000192014 11.2928 0.335932 9.60221 0.989175 8.02489C1.64242 6.44757 2.59998 5.01438 3.80718 3.80718C5.01438 2.59998 6.44757 1.64242 8.02489 0.989175C9.60221 0.335932 11.2928 -0.000192014 13 8.22917e-08H39C40.7072 -0.000192014 42.3978 0.335932 43.9751 0.989175C45.5524 1.64242 46.9856 2.59998 48.1928 3.80718C49.4 5.01438 50.3576 6.44757 51.0108 8.02489C51.6641 9.60221 52.0002 11.2928 52 13V39C52.0002 40.7072 51.6641 42.3978 51.0108 43.9751C50.3576 45.5524 49.4 46.9856 48.1928 48.1928C46.9856 49.4 45.5524 50.3576 43.9751 51.0108C42.3978 51.6641 40.7072 52.0002 39 52" fill="#7387DC"/>
<path fill-rule="evenodd" clip-rule="evenodd" d="M24.375 14.625H39C40.8747 14.6249 42.6777 13.9048 44.0367 12.6136C45.3958 11.3223 46.207 9.55846 46.303 7.68625C46.3989 5.81405 45.7722 3.9765 44.5522 2.55309C43.3323 1.12968 41.6123 0.22911 39.7475 0.0373751C39.4956 0.0235626 39.2519 8.22917e-08 39 8.22917e-08H13C11.2928 -0.000192014 9.60221 0.335932 8.02489 0.989175C6.44757 1.64242 5.01438 2.59998 3.80718 3.80718C2.59998 5.01438 1.64242 6.44757 0.989175 8.02489C0.335932 9.60221 -0.000192014 11.2928 8.22917e-08 13V39C8.22917e-08 32.5353 2.56807 26.3355 7.13927 21.7643C11.7105 17.1931 17.9103 14.625 24.375 14.625" fill="#8CA0F5"/>
<path fill-rule="evenodd" clip-rule="evenodd" d="M39 26C36.4289 26 33.9154 26.7624 31.7776 28.1909C29.6398 29.6194 27.9735 31.6497 26.9896 34.0251C26.0056 36.4006 25.7482 39.0144 26.2498 41.5362C26.7514 44.0579 27.9895 46.3743 29.8076 48.1924C31.6257 50.0105 33.9421 51.2486 36.4638 51.7502C38.9856 52.2518 41.5995 51.9944 43.9749 51.0104C46.3503 50.0265 48.3807 48.3602 49.8091 46.2224C51.2376 44.0846 52 41.5712 52 39V13C52.0002 14.7072 51.6641 16.3978 51.0108 17.9751C50.3576 19.5524 49.4 20.9856 48.1928 22.1928C46.9856 23.4 45.5524 24.3576 43.9751 25.0108C42.3978 25.6641 40.7072 26.0002 39 26" fill="#5A6EC3"/>
<path d="M22.6116 25.5636C22.1965 25.5282 21.7803 25.619 21.4176 25.8241C21.0549 26.0292 20.7626 26.3391 20.579 26.7131C20.3953 27.0871 20.3289 27.5078 20.3884 27.9202C20.4478 28.3326 20.6304 28.7174 20.9123 29.0243C21.1941 29.3312 21.5621 29.5458 21.9679 29.6401C22.3738 29.7344 22.7986 29.7039 23.1869 29.5526C23.5751 29.4014 23.9086 29.1365 24.1438 28.7925C24.379 28.4485 24.5048 28.0416 24.5048 27.6249C24.527 27.1006 24.3401 26.5888 23.985 26.2023C23.63 25.8157 23.136 25.586 22.6116 25.5636" fill="white"/>
<path d="M29.388 25.5636C28.9729 25.5282 28.5567 25.619 28.194 25.8241C27.8313 26.0292 27.539 26.3391 27.3554 26.7131C27.1717 27.0871 27.1053 27.5078 27.1647 27.9202C27.2242 28.3326 27.4068 28.7174 27.6887 29.0243C27.9705 29.3312 28.3384 29.5458 28.7443 29.6401C29.1501 29.7344 29.575 29.7039 29.9632 29.5526C30.3515 29.4014 30.685 29.1365 30.9202 28.7925C31.1553 28.4485 31.2811 28.0416 31.2811 27.6249C31.3034 27.1006 31.1164 26.5888 30.7614 26.2023C30.4064 25.8157 29.9124 25.586 29.388 25.5636" fill="white"/>
<path d="M42.25 13.8077C42.2513 13.3062 42.1537 12.8094 41.9628 12.3457C41.772 11.8819 41.4916 11.4604 41.1377 11.1051C40.7837 10.7499 40.3633 10.4678 39.9003 10.2752C39.4373 10.0825 38.9409 9.98306 38.4394 9.98242H13.5606C13.0592 9.98306 12.5627 10.0825 12.0998 10.2752C11.6368 10.4678 11.2163 10.7499 10.8624 11.1051C10.5085 11.4604 10.2281 11.8819 10.0372 12.3457C9.84632 12.8094 9.74873 13.3062 9.75001 13.8077V38.424C9.74866 38.9255 9.84618 39.4224 10.037 39.8862C10.2278 40.35 10.5082 40.7716 10.8622 41.127C11.2161 41.4823 11.6366 41.7644 12.0996 41.9571C12.5626 42.1498 13.0591 42.2494 13.5606 42.25H33.4669C33.5928 42.2505 33.717 42.2215 33.8297 42.1655C33.9425 42.1095 34.0406 42.028 34.1163 41.9274C34.192 41.8268 34.2433 41.71 34.2659 41.5862C34.2886 41.4624 34.2821 41.335 34.2469 41.2141C33.9706 40.2627 33.6131 39 33.6131 39C33.6131 39 38.4475 43.546 40.8769 45.8372C40.9924 45.9466 41.1375 46.0196 41.2941 46.0474C41.4507 46.0752 41.6121 46.0565 41.7582 45.9935C41.9043 45.9306 42.0287 45.8262 42.1161 45.6933C42.2035 45.5604 42.2501 45.4048 42.25 45.2457V13.8077ZM31.4275 34.2242C31.3456 34.2279 31.264 34.2124 31.1892 34.1788C31.1144 34.1452 31.0485 34.0945 30.9969 34.0308L30.42 33.3215C30.3675 33.2568 30.331 33.1807 30.3136 33.0992C30.2961 33.0178 30.2982 32.9334 30.3196 32.8529C30.3409 32.7724 30.3811 32.6981 30.4367 32.6361C30.4922 32.574 30.5617 32.526 30.6394 32.496C31.7048 32.1225 32.6314 31.434 33.2963 30.5216C31.1118 31.8985 28.5822 32.6292 26 32.6292C23.4178 32.6292 20.8883 31.8985 18.7038 30.5216C19.3687 31.434 20.2953 32.1225 21.3606 32.496C21.4383 32.526 21.5078 32.574 21.5634 32.6361C21.619 32.6981 21.6591 32.7724 21.6805 32.8529C21.7019 32.9334 21.7039 33.0178 21.6865 33.0992C21.669 33.1807 21.6325 33.2568 21.58 33.3215L21.0031 34.0308C20.9515 34.0945 20.8857 34.1452 20.8109 34.1788C20.7361 34.2124 20.6544 34.2279 20.5725 34.2242C19.5116 34.2159 18.4677 33.957 17.5259 33.4686C16.5841 32.9802 15.7711 32.2761 15.1531 31.4137C15.2134 27.6488 16.1274 23.9467 17.8263 20.5864C19.3026 19.4398 21.088 18.761 22.9531 18.6372C22.9823 18.6366 23.0112 18.6425 23.0379 18.6542C23.0645 18.666 23.0883 18.6835 23.1075 18.7054C23.1298 18.73 23.1454 18.7597 23.153 18.792C23.1606 18.8242 23.1599 18.8579 23.151 18.8898C23.1421 18.9217 23.1252 18.9508 23.102 18.9744C23.0787 18.998 23.0499 19.0153 23.0181 19.0247C21.433 19.4785 19.9568 20.25 18.6794 21.2924C20.9231 20.0616 23.4409 19.4164 26 19.4164C28.5591 19.4164 31.0769 20.0616 33.3206 21.2924C32.0432 20.25 30.567 19.4785 28.9819 19.0247C28.9501 19.0153 28.9213 18.998 28.8981 18.9744C28.8748 18.9508 28.858 18.9217 28.849 18.8898C28.8401 18.8579 28.8394 18.8242 28.847 18.792C28.8546 18.7597 28.8703 18.73 28.8925 18.7054C28.9117 18.6835 28.9355 18.666 28.9622 18.6542C28.9888 18.6425 29.0177 18.6366 29.0469 18.6372C30.912 18.761 32.6975 19.4398 34.1738 20.5864C35.8726 23.9467 36.7866 27.6488 36.8469 31.4137C36.2289 32.2761 35.4159 32.9802 34.4741 33.4686C33.5323 33.957 32.4884 34.2159 31.4275 34.2242V34.2242Z" fill="white"/>
</svg>
