<svg width="32" height="32" viewBox="0 0 32 32" fill="none" xmlns="http://www.w3.org/2000/svg">
<path d="M21.446 17.8469C20.7153 17.8469 20.009 17.7997 19.3407 17.7118V10.3864C20.009 10.2987 20.7153 10.2515 21.446 10.2515C25.6179 10.2515 29 11.7854 29 13.6776V14.4206C29 16.3128 25.6179 17.8469 21.446 17.8469Z" fill="#767676"/>
<path d="M21.446 21.6717C20.7153 21.6717 20.009 21.6245 19.3407 21.5368V19.3896C20.0092 19.4774 20.7151 19.5252 21.446 19.5252C25.0876 19.5252 28.1272 18.3564 28.8411 16.8008C28.9451 17.0274 29 17.262 29 17.5025V18.2455C29 20.1378 25.6179 21.6717 21.446 21.6717Z" fill="#767676"/>
<path d="M19.3407 23.3817V23.2148C20.0092 23.3026 20.7151 23.3504 21.446 23.3504C25.0876 23.3504 28.1272 22.1816 28.8411 20.626C28.9451 20.8525 29 21.0871 29 21.3276V22.0707C29 23.963 25.6179 25.4969 21.446 25.4969C20.6117 25.4969 19.8092 25.4354 19.0588 25.3221C19.2448 24.9416 19.3407 24.5403 19.3407 24.1246V23.3817Z" fill="#767676"/>
<path d="M10.5544 4.44873C14.7263 4.44873 18.1084 5.98264 18.1084 7.87488V8.61791C18.1084 10.5102 14.7263 12.0441 10.5544 12.0441C6.38247 12.0441 3.00034 10.5102 3.00034 8.61791V7.87488C3.00034 5.98264 6.38247 4.44873 10.5544 4.44873Z" fill="#767676"/>
<path d="M10.5544 13.7225C14.196 13.7225 17.2356 12.5537 17.9495 10.998C18.0535 11.2246 18.1084 11.4592 18.1084 11.6998V12.4428C18.1084 14.3351 14.7263 15.869 10.5544 15.869C6.38247 15.869 3.00034 14.3351 3.00034 12.4428V11.6998C3.00034 11.4592 3.05524 11.2246 3.15921 10.998C3.87318 12.5537 6.91269 13.7225 10.5544 13.7225Z" fill="#767676"/>
<path d="M10.5544 17.5477C14.196 17.5477 17.2356 16.3788 17.9495 14.8232C18.0535 15.0498 18.1084 15.2844 18.1084 15.525V16.268C18.1084 18.1603 14.7263 19.6942 10.5544 19.6942C6.38247 19.6942 3.00034 18.1603 3.00034 16.268V15.525C3.00034 15.2844 3.05524 15.0498 3.15921 14.8232C3.87318 16.3789 6.91269 17.5477 10.5544 17.5477Z" fill="#767676"/>
<path d="M10.5544 21.5794C14.196 21.5794 17.2356 20.4106 17.9495 18.855C18.0535 19.0816 18.1084 19.3161 18.1084 19.5566V20.2997C18.1084 22.192 14.7263 23.7259 10.5544 23.7259C6.38247 23.7259 3.00034 22.192 3.00034 20.2997V19.5566C3.00034 19.3161 3.05524 19.0814 3.15921 18.855C3.87318 20.4105 6.91269 21.5794 10.5544 21.5794Z" fill="#767676"/>
<path d="M10.5544 25.4046C14.196 25.4046 17.2356 24.2358 17.9495 22.6802C18.0535 22.9068 18.1084 23.1415 18.1084 23.3819V24.1249C18.1084 26.0172 14.7263 27.5511 10.5544 27.5511C6.38247 27.5511 3.00034 26.0172 3.00034 24.1249V23.3818C3.00034 23.1413 3.05524 22.9066 3.15921 22.6802C3.87318 24.2358 6.91269 25.4046 10.5544 25.4046Z" fill="#767676"/>
</svg>
