<svg width="119" height="32" viewBox="0 0 119 32" fill="none" xmlns="http://www.w3.org/2000/svg">
<path d="M0.00203514 15.0607C-0.126226 22.144 5.82519 31.0423 13.0051 31.9626C17.4753 32.5353 29.1957 26.5382 34.448 13.6564C35.1867 11.8446 37.2426 3.58379 34.9296 0C31.7209 0.870248 26.4005 4.45513 23.4132 9.78213C20.8128 8.32936 12.1857 7.59726 6.93354 13.2207C6.48002 9.46503 5.02857 6.86408 3.63231 6.26252C0.00203597 8.23255 0.00203514 15.0607 0.00203514 15.0607Z" fill="#FFC100"/>
<path d="M5.21701 21.6338C4.85496 19.1188 7.18151 16.9018 11.4363 15.2157C17.4673 12.8225 22.4511 13.1064 22.7049 16.4058C22.7049 16.3992 22.7049 16.3922 22.7049 16.3856C22.7049 12.5957 17.2752 12.2101 10.6689 14.8295C6.12837 16.6293 3.64649 18.9953 4.03235 21.6795C4.35707 23.9291 8.89274 30.0866 13.0085 29.3121C14.7164 28.9906 16.3308 27.8435 17.7346 26.332C16.4969 27.5792 15.0996 28.5115 13.6287 28.7883C9.77271 29.5133 5.52007 23.7425 5.21701 21.6338Z" fill="#1A1A1A"/>
<path d="M22.7073 16.4047C22.4535 13.1054 17.4697 12.8236 11.4387 15.2146C7.18392 16.9007 4.85737 19.1188 5.21942 21.6327C5.52248 23.7414 9.77404 29.5123 13.6316 28.7861C15.1025 28.5093 16.4999 27.577 17.7376 26.3299C20.6768 23.3683 22.7165 18.6309 22.7165 16.6717C22.7159 16.5804 22.7122 16.4923 22.7073 16.4047Z" fill="#E6E6E6"/>
<path d="M34.9296 0C33.2633 0.452529 31.0282 1.63661 28.8456 3.41572C30.1364 9.37801 30.8399 22.7891 15.2852 31.813C20.6461 30.7111 29.9345 24.7254 34.4507 13.6564C35.1867 11.8446 37.2427 3.58379 34.9296 0Z" fill="#EE8019"/>
<path d="M5.50968 8.31302C4.94197 7.25404 4.28064 6.54261 3.63122 6.2625C0.00203101 8.23252 0.00203101 15.0607 0.00203101 15.0607C-0.0623701 18.6211 1.40911 22.6395 3.80061 25.873C0.972918 19.8862 1.45241 12.7817 5.50968 8.31302Z" fill="#EE6F19"/>
<path d="M18.6712 19.2935C18.3988 19.2935 18.1312 19.2216 17.8952 19.0849C17.6592 18.9481 17.4631 18.7514 17.3266 18.5145C17.1902 18.2775 17.1181 18.0087 17.1177 17.7349C17.1173 17.4611 17.1885 17.1921 17.3242 16.9547C15.8944 17.1222 14.1339 18.0425 13.9786 19.3647C13.793 20.9497 14.3103 22.3132 15.7753 22.4867C17.2403 22.6602 19.0971 21.5779 19.2833 19.9929C19.3185 19.6916 19.3509 19.4012 19.371 19.1265C19.1541 19.2369 18.9143 19.2941 18.6712 19.2935Z" fill="black"/>
<path d="M10.3626 20.9663C10.2196 21.1783 10.0056 21.3316 9.75968 21.3985C9.51371 21.4654 9.25202 21.4414 9.02217 21.3309C8.79231 21.2203 8.60953 21.0306 8.50703 20.7962C8.40454 20.5617 8.38912 20.298 8.4636 20.0531C8.19281 20.094 7.93103 20.1814 7.6897 20.3115C6.89362 20.7466 6.88279 21.4472 7.40017 22.3968C7.91754 23.3465 9.26401 23.6076 10.0601 23.1697C10.8129 22.7558 10.8037 21.866 10.3626 20.9663Z" fill="black"/>
<path d="M20.1962 8.87699C16.4219 8.39455 10.7757 9.10707 6.93386 13.2206C6.93386 13.2108 6.93386 13.2005 6.93007 13.1907C5.51 14.706 4.32913 17.3826 3.99414 19.9145C5.77735 15.0503 11.9101 10.2901 20.1962 8.87699Z" fill="#F9E066"/>
<path d="M56.5496 16.486C56.5496 17.3407 56.3821 18.187 56.0567 18.9766C55.7312 19.7662 55.2542 20.4837 54.6529 21.0881C54.0516 21.6924 53.3377 22.1718 52.552 22.4989C51.7663 22.8259 50.9243 22.9943 50.0739 22.9943H48.4728C46.7553 22.9943 45.1082 22.3086 43.8938 21.0881C42.6793 19.8675 41.9971 18.2121 41.9971 16.486V15.5103C41.997 14.6554 42.1644 13.8089 42.4898 13.019C42.8152 12.2292 43.2923 11.5115 43.8937 10.907C44.4951 10.3025 45.2092 9.82295 45.995 9.49578C46.7808 9.16861 47.6231 9.00021 48.4737 9.00021H49.8144C49.8675 9.0001 49.9202 9.01052 49.9693 9.03089C50.0185 9.05125 50.0632 9.08115 50.1008 9.11889C50.1384 9.15663 50.1683 9.20146 50.1886 9.25081C50.209 9.30016 50.2195 9.35306 50.2195 9.40648V10.7823C50.2195 10.8357 50.209 10.8886 50.1886 10.938C50.1683 10.9873 50.1384 11.0321 50.1008 11.0699C50.0632 11.1076 50.0185 11.1375 49.9693 11.1579C49.9202 11.1783 49.8675 11.1887 49.8144 11.1886H48.8356C46.3775 11.1886 44.3828 13.3104 44.3828 15.9281V16.1622C44.3828 18.779 46.3766 20.9009 48.8356 20.9009H49.6979C51.6529 20.9009 53.3095 19.5588 53.9079 17.6942H49.3704C49.2663 17.6942 49.1807 17.5239 49.1807 17.3127V15.6593C49.1807 15.4561 49.2627 15.2912 49.3642 15.2912H56.268C56.3402 15.2914 56.4094 15.3202 56.4606 15.3713C56.5118 15.4225 56.541 15.4918 56.5416 15.5644L56.5496 16.486Z" fill="white"/>
<path d="M75.4445 22.998H73.261C73.1491 22.9955 73.0406 22.9586 72.9502 22.8923C72.8598 22.826 72.7918 22.7335 72.7552 22.6272L69.1418 13.0471C68.7888 12.1201 67.9715 11.5161 67.0518 11.5081C66.1003 11.5081 65.2707 12.1201 64.9229 13.0648L61.3978 22.6246C61.3618 22.732 61.2938 22.8256 61.203 22.8928C61.1122 22.9599 61.003 22.9973 60.8903 22.9998H58.7729C58.7389 22.9973 58.706 22.9866 58.6771 22.9686C58.6481 22.9506 58.6239 22.9258 58.6065 22.8963C58.5892 22.8668 58.5792 22.8336 58.5774 22.7994C58.5757 22.7652 58.5821 22.7311 58.5963 22.7L62.9406 12.066C63.9556 9.58229 66.6546 8.28898 69.1771 9.49359C70.2601 10.0116 71.0871 11.0184 71.5487 12.2106L75.6202 22.7009C75.6342 22.7317 75.6407 22.7656 75.6388 22.7995C75.637 22.8335 75.6271 22.8664 75.6098 22.8957C75.5925 22.9249 75.5685 22.9494 75.5397 22.9673C75.5109 22.9851 75.4783 22.9957 75.4445 22.998Z" fill="white"/>
<path d="M93.4767 9.47161C93.4767 9.98343 93.4679 10.4944 93.4635 11.0053C93.4621 11.1197 93.4159 11.229 93.335 11.3095C93.2541 11.39 93.1449 11.4353 93.031 11.4355H79.0019C78.9013 11.4353 78.8049 11.395 78.7338 11.3236C78.6626 11.2521 78.6226 11.1552 78.6224 11.0541V9.39887C78.6224 9.30124 78.6609 9.2076 78.7296 9.13856C78.7983 9.06953 78.8915 9.03075 78.9886 9.03075H93.0434C93.1007 9.03086 93.1574 9.04238 93.2103 9.06464C93.2632 9.0869 93.3111 9.11947 93.3514 9.16045C93.3917 9.20144 93.4235 9.25003 93.445 9.30343C93.4665 9.35684 93.4773 9.414 93.4767 9.47161ZM89.3991 15.2667C89.3949 15.7729 89.3902 16.2794 89.3849 16.7862C89.3835 16.9006 89.3374 17.0097 89.2564 17.0901C89.1755 17.1705 89.0662 17.2155 88.9525 17.2155L81.5879 17.2067C81.5134 17.2064 81.4396 17.221 81.3708 17.2494C81.3019 17.2779 81.2392 17.3197 81.1864 17.3725C81.1336 17.4253 81.0917 17.4881 81.0631 17.5572C81.0344 17.6263 81.0196 17.7004 81.0195 17.7753L81.0081 22.6487C81.0078 22.7401 80.9715 22.8276 80.9072 22.8921C80.8428 22.9566 80.7556 22.9929 80.6647 22.9929H78.9339C78.8475 22.9887 78.7663 22.9504 78.7079 22.8863C78.6495 22.8221 78.6188 22.7373 78.6224 22.6505V17.7132C78.6224 16.9474 78.925 16.213 79.4638 15.6715C80.0026 15.13 80.7333 14.8258 81.4953 14.8258H88.9675C89.0247 14.8258 89.0814 14.8373 89.1343 14.8595C89.1871 14.8818 89.235 14.9143 89.2752 14.9554C89.3153 14.9964 89.347 15.0451 89.3683 15.0985C89.3895 15.152 89.4 15.2091 89.3991 15.2667Z" fill="white"/>
<path d="M99.1458 9.36565V22.6598C99.1494 22.7446 99.1194 22.8274 99.0623 22.8899C99.0052 22.9525 98.9257 22.9897 98.8413 22.9934H97.0655C96.9812 22.9897 96.9017 22.9525 96.8446 22.8899C96.7875 22.8274 96.7574 22.7446 96.761 22.6598V9.36565C96.7574 9.28085 96.7875 9.19809 96.8446 9.13555C96.9017 9.07301 96.9812 9.0358 97.0655 9.03212H98.844C98.9279 9.03649 99.0067 9.07399 99.0632 9.13645C99.1198 9.19891 99.1495 9.28129 99.1458 9.36565Z" fill="white"/>
<path d="M118.251 9.3692V19.9641C118.251 21.6371 117.015 22.9925 115.488 22.9925H114.754C113.342 22.9925 112.048 22.1338 111.393 20.7633L107.182 11.9496C107.142 11.8608 107.079 11.7851 106.998 11.7314C106.917 11.6777 106.823 11.6482 106.726 11.6462H106.486C106.133 11.6462 105.841 11.9629 105.841 12.3559V22.6598C105.844 22.7455 105.813 22.8291 105.756 22.8922C105.698 22.9554 105.618 22.993 105.533 22.9969H103.767C103.682 22.9932 103.602 22.9557 103.544 22.8925C103.486 22.8293 103.456 22.7456 103.459 22.6598V12.0614C103.459 10.3893 104.695 9.03301 106.223 9.03301H106.853C108.157 9.03301 109.356 9.81538 109.976 11.0732L114.342 19.9109C114.383 19.9984 114.448 20.0726 114.529 20.1249C114.61 20.1773 114.704 20.2058 114.8 20.2072H115.231C115.584 20.2072 115.871 19.8878 115.871 19.4975V9.3692C115.867 9.28346 115.897 9.19979 115.955 9.13659C116.013 9.07338 116.093 9.03581 116.179 9.03212H117.948C118.033 9.03694 118.112 9.07503 118.169 9.13814C118.225 9.20125 118.255 9.28427 118.251 9.3692Z" fill="white"/>
</svg>
