<svg width="36" height="32" viewBox="0 0 36 32" fill="none" xmlns="http://www.w3.org/2000/svg">
<path d="M28.9229 18.5005H30.6872C30.869 17.6816 30.9738 16.8437 30.9998 16.0005H29.2132C29.1873 16.8422 29.0901 17.6793 28.9229 18.5005Z" fill="url(#paint0_linear_7571_77360)"/>
<path d="M30.6872 12.5005H28.9229C29.0901 13.3217 29.1873 14.1587 29.2132 15.0005H30.9998C30.9738 14.1572 30.869 13.3193 30.6872 12.5005Z" fill="url(#paint1_linear_7571_77360)"/>
<path d="M27.7334 8.99951C28.1258 9.79439 28.4446 10.6321 28.6848 11.4995H30.4223C30.1578 10.6262 29.8088 9.78794 29.3816 8.99951H27.7334Z" fill="url(#paint2_linear_7571_77360)"/>
<path d="M17.1672 23.5005C18.5806 23.5005 19.9624 23.0313 21.1376 22.1522C22.3129 21.2732 23.2289 20.0238 23.7698 18.562C24.3107 17.1001 24.4522 15.4916 24.1765 13.9398C23.9007 12.3879 23.2201 10.9625 22.2206 9.84364C21.2211 8.72482 19.9477 7.96289 18.5614 7.65421C17.1751 7.34553 15.7381 7.50395 14.4323 8.10946C13.1264 8.71496 12.0102 9.74034 11.2249 11.0559C10.4397 12.3715 10.0205 13.9182 10.0205 15.5005C10.0228 17.6214 10.7764 19.6548 12.1162 21.1546C13.456 22.6543 15.2724 23.498 17.1672 23.5005ZM21.4105 19.109L17.3905 21.709C17.3226 21.7529 17.2456 21.776 17.1672 21.776C17.0887 21.776 17.0117 21.7529 16.9438 21.709L12.9238 19.109C12.8221 19.0422 12.7481 18.9331 12.7179 18.8054C12.6878 18.6778 12.7039 18.542 12.7629 18.4276C12.8219 18.3133 12.9189 18.2297 13.0327 18.1951C13.1465 18.1605 13.268 18.1777 13.3705 18.243L17.1672 20.6965L20.9638 18.243C21.0663 18.1777 21.1878 18.1605 21.3016 18.1951C21.4154 18.2297 21.5124 18.3133 21.5714 18.4276C21.6304 18.542 21.6466 18.6778 21.6164 18.8054C21.5863 18.9331 21.5122 19.0422 21.4105 19.109ZM18.0605 15.0005C18.1789 15.0005 18.2926 15.0532 18.3763 15.1469C18.4601 15.2407 18.5071 15.3679 18.5071 15.5005C18.5071 15.6331 18.4601 15.7603 18.3763 15.854C18.2926 15.9478 18.1789 16.0005 18.0605 16.0005H17.1672V17.0005C17.1672 17.1331 17.1201 17.2603 17.0363 17.354C16.9526 17.4478 16.839 17.5005 16.7205 17.5005C16.602 17.5005 16.4884 17.4478 16.4046 17.354C16.3209 17.2603 16.2738 17.1331 16.2738 17.0005V14.0005C16.2738 13.8679 16.3209 13.7407 16.4046 13.6469C16.4884 13.5532 16.602 13.5005 16.7205 13.5005H18.0605C18.1789 13.5005 18.2926 13.5532 18.3763 13.6469C18.4601 13.7407 18.5071 13.8679 18.5071 14.0005C18.5071 14.1331 18.4601 14.2603 18.3763 14.354C18.2926 14.4478 18.1789 14.5005 18.0605 14.5005H17.1672V15.0005H18.0605ZM21.1871 14.5005H20.7405V17.0005C20.7405 17.1331 20.6934 17.2603 20.6097 17.354C20.5259 17.4478 20.4123 17.5005 20.2938 17.5005C20.1753 17.5005 20.0617 17.4478 19.978 17.354C19.8942 17.2603 19.8471 17.1331 19.8471 17.0005V14.5005H19.4005C19.282 14.5005 19.1684 14.4478 19.0846 14.354C19.0009 14.2603 18.9538 14.1331 18.9538 14.0005C18.9538 13.8679 19.0009 13.7407 19.0846 13.6469C19.1684 13.5532 19.282 13.5005 19.4005 13.5005H21.1871C21.3056 13.5005 21.4192 13.5532 21.503 13.6469C21.5867 13.7407 21.6338 13.8679 21.6338 14.0005C21.6338 14.1331 21.5867 14.2603 21.503 14.354C21.4192 14.4478 21.3056 14.5005 21.1871 14.5005ZM12.9238 11.892L16.9438 9.29199C17.0117 9.24811 17.0887 9.225 17.1672 9.225C17.2456 9.225 17.3226 9.24811 17.3905 9.29199L21.4105 11.892C21.4617 11.9246 21.5066 11.9682 21.5427 12.0203C21.5788 12.0724 21.6053 12.132 21.6208 12.1956C21.6362 12.2593 21.6402 12.3257 21.6326 12.3911C21.6251 12.4565 21.606 12.5195 21.5765 12.5767C21.5471 12.6338 21.5078 12.6838 21.461 12.7238C21.4142 12.7639 21.3608 12.7932 21.3039 12.81C21.2469 12.8269 21.1876 12.831 21.1292 12.822C21.0708 12.8131 21.0146 12.7913 20.9638 12.758L17.1672 10.3045L13.3705 12.758C13.268 12.8232 13.1465 12.8405 13.0327 12.8059C12.9189 12.7713 12.8219 12.6877 12.7629 12.5733C12.7039 12.459 12.6878 12.3232 12.7179 12.1955C12.7481 12.0679 12.8221 11.9588 12.9238 11.892ZM12.7005 14.0005C12.7005 13.8932 12.7313 13.7887 12.7884 13.7025C12.8455 13.6163 12.9259 13.553 13.0177 13.5219C13.1094 13.4907 13.2077 13.4935 13.2979 13.5297C13.3882 13.5659 13.4656 13.6337 13.5188 13.723L14.4872 15.3505V14.0005C14.4872 13.8679 14.5342 13.7407 14.618 13.6469C14.7018 13.5532 14.8154 13.5005 14.9338 13.5005C15.0523 13.5005 15.1659 13.5532 15.2497 13.6469C15.3334 13.7407 15.3805 13.8679 15.3805 14.0005V17.0005C15.3805 17.1078 15.3497 17.2123 15.2926 17.2985C15.2355 17.3847 15.1551 17.448 15.0633 17.4791C14.9716 17.5102 14.8733 17.5075 14.7831 17.4713C14.6928 17.435 14.6154 17.3673 14.5622 17.278L13.5938 15.6505V17.0005C13.5938 17.1331 13.5468 17.2603 13.463 17.354C13.3792 17.4478 13.2656 17.5005 13.1472 17.5005C13.0287 17.5005 12.9151 17.4478 12.8313 17.354C12.7476 17.2603 12.7005 17.1331 12.7005 17.0005V14.0005Z" fill="url(#paint3_linear_7571_77360)"/>
<path d="M17.1666 28C19.3752 28 21.5341 27.2669 23.3705 25.8934C25.2068 24.5199 26.6381 22.5676 27.4833 20.2835C28.3284 17.9995 28.5496 15.4861 28.1187 13.0614C27.6878 10.6366 26.6243 8.40933 25.0626 6.66117C23.501 4.91301 21.5113 3.7225 19.3451 3.24019C17.179 2.75787 14.9338 3.00542 12.8933 3.95151C10.8529 4.89761 9.10892 6.49976 7.88192 8.55538C6.65491 10.611 6 13.0277 6 15.5C6.0026 18.8143 7.17992 21.992 9.27351 24.3356C11.3671 26.6792 14.2059 27.9971 17.1666 28ZM9.26646 21.183L8.87965 21.433C8.77712 21.4983 8.65568 21.5155 8.54185 21.4809C8.42803 21.4463 8.33104 21.3627 8.27206 21.2483C8.21309 21.134 8.19691 20.9982 8.22706 20.8705C8.2572 20.7429 8.33123 20.6338 8.43299 20.567L8.8198 20.317C8.87062 20.2837 8.92682 20.2619 8.98519 20.253C9.04355 20.244 9.10292 20.2481 9.15987 20.265C9.21681 20.2818 9.27022 20.3111 9.31702 20.3512C9.36381 20.3912 9.40306 20.4412 9.43252 20.4983C9.46197 20.5554 9.48104 20.6185 9.48864 20.6839C9.49623 20.7493 9.49219 20.8157 9.47676 20.8793C9.46132 20.943 9.4348 21.0026 9.39871 21.0547C9.36262 21.1068 9.31767 21.1504 9.26646 21.183ZM12.8635 24.8435L12.6401 25.2765C12.611 25.3338 12.5721 25.3841 12.5255 25.4245C12.4789 25.4649 12.4257 25.4946 12.3689 25.5119C12.312 25.5292 12.2527 25.5337 12.1943 25.5252C12.1358 25.5167 12.0795 25.4954 12.0285 25.4624C11.9775 25.4294 11.9328 25.3855 11.897 25.3331C11.8612 25.2807 11.8351 25.2209 11.82 25.1572C11.8049 25.0934 11.8013 25.027 11.8093 24.9616C11.8173 24.8963 11.8367 24.8334 11.8665 24.7765L12.0898 24.3435C12.119 24.2862 12.1579 24.2359 12.2045 24.1955C12.251 24.1551 12.3043 24.1254 12.3611 24.1081C12.4179 24.0908 12.4773 24.0863 12.5357 24.0948C12.5941 24.1033 12.6505 24.1246 12.7015 24.1576C12.7525 24.1906 12.7972 24.2345 12.8329 24.2869C12.8687 24.3393 12.8949 24.3991 12.91 24.4628C12.925 24.5266 12.9287 24.593 12.9207 24.6584C12.9127 24.7237 12.8933 24.7866 12.8635 24.8435ZM17.6133 26.5C17.6133 26.6326 17.5662 26.7598 17.4825 26.8536C17.3987 26.9473 17.2851 27 17.1666 27C17.0482 27 16.9346 26.9473 16.8508 26.8536C16.767 26.7598 16.72 26.6326 16.72 26.5V26C16.72 25.8674 16.767 25.7402 16.8508 25.6464C16.9346 25.5527 17.0482 25.5 17.1666 25.5C17.2851 25.5 17.3987 25.5527 17.4825 25.6464C17.5662 25.7402 17.6133 25.8674 17.6133 26V26.5ZM22.3033 25.4595C22.2007 25.5258 22.0788 25.5438 21.9644 25.5094C21.8499 25.4751 21.7524 25.3913 21.6931 25.2765L21.4698 24.8435C21.44 24.7866 21.4206 24.7237 21.4126 24.6584C21.4046 24.593 21.4083 24.5266 21.4233 24.4628C21.4384 24.3991 21.4645 24.3393 21.5003 24.2869C21.5361 24.2345 21.5808 24.1906 21.6318 24.1576C21.6828 24.1246 21.7392 24.1033 21.7976 24.0948C21.856 24.0863 21.9153 24.0908 21.9722 24.1081C22.029 24.1254 22.0823 24.1551 22.1288 24.1955C22.1754 24.2359 22.2143 24.2862 22.2434 24.3435L22.4668 24.7765C22.526 24.8913 22.542 25.0278 22.5114 25.1559C22.4807 25.284 22.4059 25.3932 22.3033 25.4595ZM26.0638 21.25C26.0045 21.3648 25.907 21.4486 25.7925 21.483C25.6781 21.5173 25.5562 21.4993 25.4536 21.433L25.0668 21.183C25.0156 21.1504 24.9707 21.1068 24.9346 21.0547C24.8985 21.0026 24.8719 20.943 24.8565 20.8793C24.8411 20.8157 24.837 20.7493 24.8446 20.6839C24.8522 20.6185 24.8713 20.5554 24.9007 20.4983C24.9302 20.4412 24.9695 20.3912 25.0163 20.3512C25.063 20.3111 25.1165 20.2818 25.1734 20.265C25.2304 20.2481 25.2897 20.244 25.3481 20.253C25.4064 20.2619 25.4627 20.2837 25.5135 20.317L25.9003 20.567C26.0029 20.6333 26.0777 20.7425 26.1084 20.8706C26.139 20.9987 26.123 21.1352 26.0638 21.25ZM26.5466 15H26.9933C27.1117 15 27.2253 15.0527 27.3091 15.1464C27.3929 15.2402 27.4399 15.3674 27.4399 15.5C27.4399 15.6326 27.3929 15.7598 27.3091 15.8536C27.2253 15.9473 27.1117 16 26.9933 16H26.5466C26.4281 16 26.3145 15.9473 26.2308 15.8536C26.147 15.7598 26.0999 15.6326 26.0999 15.5C26.0999 15.3674 26.147 15.2402 26.2308 15.1464C26.3145 15.0527 26.4281 15 26.5466 15ZM25.0668 9.817L25.4536 9.567C25.5562 9.50175 25.6776 9.48454 25.7914 9.51913C25.9052 9.55372 26.0022 9.63731 26.0612 9.75166C26.1202 9.866 26.1364 10.0018 26.1062 10.1295C26.0761 10.2571 26.002 10.3662 25.9003 10.433L25.5135 10.683C25.4627 10.7164 25.4064 10.7381 25.3481 10.7471C25.2897 10.756 25.2304 10.7519 25.1734 10.7351C25.1165 10.7182 25.063 10.6889 25.0163 10.6488C24.9695 10.6088 24.9302 10.5588 24.9007 10.5017C24.8713 10.4446 24.8522 10.3815 24.8446 10.3161C24.837 10.2507 24.8411 10.1843 24.8565 10.1207C24.8719 10.057 24.8985 9.99743 24.9346 9.94532C24.9707 9.8932 25.0156 9.8496 25.0668 9.817ZM21.4698 6.1565L21.6931 5.7235C21.7528 5.6096 21.8503 5.52673 21.9643 5.49299C22.0783 5.45924 22.1997 5.47735 22.3018 5.54337C22.404 5.60939 22.4786 5.71795 22.5095 5.84537C22.5404 5.97279 22.5251 6.10873 22.4668 6.2235L22.2434 6.6565C22.2143 6.71383 22.1754 6.76414 22.1288 6.80454C22.0823 6.84494 22.029 6.87463 21.9722 6.89191C21.9153 6.90919 21.856 6.91371 21.7976 6.90521C21.7392 6.89671 21.6828 6.87536 21.6318 6.84239C21.5808 6.80942 21.5361 6.76548 21.5003 6.71309C21.4645 6.66071 21.4384 6.60093 21.4233 6.53718C21.4083 6.47343 21.4046 6.40697 21.4126 6.34164C21.4206 6.27631 21.44 6.21339 21.4698 6.1565ZM16.72 4.50001C16.72 4.3674 16.767 4.24022 16.8508 4.14645C16.9346 4.05268 17.0482 4.00001 17.1666 4.00001C17.2851 4.00001 17.3987 4.05268 17.4825 4.14645C17.5662 4.24022 17.6133 4.3674 17.6133 4.50001V5.00001C17.6133 5.13261 17.5662 5.25979 17.4825 5.35356C17.3987 5.44733 17.2851 5.50001 17.1666 5.50001C17.0482 5.50001 16.9346 5.44733 16.8508 5.35356C16.767 5.25979 16.72 5.13261 16.72 5.00001V4.50001ZM12.03 5.54051C12.1326 5.4742 12.2545 5.45624 12.3689 5.49056C12.4833 5.52487 12.5809 5.60867 12.6401 5.7235L12.8635 6.1565C12.8933 6.21339 12.9127 6.27631 12.9207 6.34164C12.9287 6.40697 12.925 6.47343 12.91 6.53718C12.8949 6.60093 12.8687 6.66071 12.8329 6.71309C12.7972 6.76548 12.7525 6.80942 12.7015 6.84239C12.6505 6.87536 12.5941 6.89671 12.5357 6.90521C12.4773 6.91371 12.4179 6.90919 12.3611 6.89191C12.3043 6.87463 12.251 6.84494 12.2045 6.80454C12.1579 6.76414 12.119 6.71383 12.0898 6.6565L11.8665 6.2235C11.8073 6.10867 11.7912 5.97219 11.8219 5.84411C11.8525 5.71602 11.9274 5.60681 12.03 5.54051ZM17.1666 6.5C18.7568 6.5 20.3112 7.02785 21.6334 8.01678C22.9556 9.00571 23.9861 10.4113 24.5946 12.0559C25.2031 13.7004 25.3623 15.51 25.0521 17.2558C24.7419 19.0016 23.9762 20.6053 22.8518 21.864C21.7273 23.1226 20.2948 23.9798 18.7352 24.3271C17.1756 24.6743 15.559 24.4961 14.0899 23.8149C12.6208 23.1337 11.3651 21.9802 10.4816 20.5001C9.59819 19.0201 9.12666 17.28 9.12666 15.5C9.12914 13.1139 9.977 10.8263 11.4843 9.13911C12.9915 7.45189 15.0351 6.50278 17.1666 6.5ZM8.26951 9.75C8.32874 9.63517 8.4263 9.55137 8.54072 9.51706C8.65515 9.48274 8.77706 9.5007 8.87965 9.567L9.26646 9.817C9.31767 9.8496 9.36262 9.8932 9.39871 9.94532C9.4348 9.99743 9.46132 10.057 9.47676 10.1207C9.49219 10.1843 9.49623 10.2507 9.48864 10.3161C9.48104 10.3815 9.46197 10.4446 9.43252 10.5017C9.40306 10.5588 9.36381 10.6088 9.31702 10.6488C9.27022 10.6889 9.21681 10.7182 9.15987 10.7351C9.10292 10.7519 9.04355 10.756 8.98519 10.7471C8.92682 10.7381 8.87062 10.7164 8.8198 10.683L8.43299 10.433C8.3304 10.3667 8.25554 10.2575 8.22489 10.1294C8.19423 10.0013 8.21028 9.86484 8.26951 9.75ZM7.34 15H7.78666C7.90512 15 8.01874 15.0527 8.1025 15.1464C8.18627 15.2402 8.23333 15.3674 8.23333 15.5C8.23333 15.6326 8.18627 15.7598 8.1025 15.8536C8.01874 15.9473 7.90512 16 7.78666 16H7.34C7.22153 16 7.10792 15.9473 7.02416 15.8536C6.94039 15.7598 6.89333 15.6326 6.89333 15.5C6.89333 15.3674 6.94039 15.2402 7.02416 15.1464C7.10792 15.0527 7.22153 15 7.34 15Z" fill="url(#paint4_linear_7571_77360)"/>
<path d="M30.4223 19.4995H28.6848C28.4446 20.3669 28.1258 21.2046 27.7334 21.9995H29.3816C29.8088 21.2111 30.1578 20.3728 30.4223 19.4995Z" fill="url(#paint5_linear_7571_77360)"/>
<path d="M27.0914 6H25.7246C26.2693 6.61236 26.7599 7.28213 27.1897 8H28.7753C28.2812 7.26623 27.7165 6.59553 27.0914 6Z" fill="url(#paint6_linear_7571_77360)"/>
<path d="M24.7332 5.00048H25.8946C24.8192 4.22071 23.6314 3.6554 22.3838 3.32959C23.2221 3.78281 24.0105 4.34353 24.7332 5.00048Z" fill="url(#paint7_linear_7571_77360)"/>
<path d="M24.7332 26.0005C24.0105 26.6574 23.2221 27.2182 22.3838 27.6714C23.6314 27.3456 24.8192 26.7803 25.8946 26.0005H24.7332Z" fill="url(#paint8_linear_7571_77360)"/>
<path d="M28.7753 23H27.1897C26.7599 23.7179 26.2693 24.3876 25.7246 25H27.0914C27.7165 24.4045 28.2812 23.7338 28.7753 23Z" fill="url(#paint9_linear_7571_77360)"/>
<defs>
<linearGradient id="paint0_linear_7571_77360" x1="29.546" y1="16.186" x2="30.7058" y2="18.2361" gradientUnits="userSpaceOnUse">
<stop stop-color="#FFFF18"/>
<stop offset="0.2203" stop-color="#FFCB0E"/>
<stop offset="0.5007" stop-color="#FF8300"/>
<stop offset="0.8867" stop-color="#FF6000"/>
<stop offset="1" stop-color="#FF9700"/>
</linearGradient>
<linearGradient id="paint1_linear_7571_77360" x1="29.546" y1="12.686" x2="30.7058" y2="14.7361" gradientUnits="userSpaceOnUse">
<stop stop-color="#FFFF18"/>
<stop offset="0.2203" stop-color="#FFCB0E"/>
<stop offset="0.5007" stop-color="#FF8300"/>
<stop offset="0.8867" stop-color="#FF6000"/>
<stop offset="1" stop-color="#FF9700"/>
</linearGradient>
<linearGradient id="paint2_linear_7571_77360" x1="28.5401" y1="9.18499" x2="29.5331" y2="11.4574" gradientUnits="userSpaceOnUse">
<stop stop-color="#FFFF18"/>
<stop offset="0.2203" stop-color="#FFCB0E"/>
<stop offset="0.5007" stop-color="#FF8300"/>
<stop offset="0.8867" stop-color="#FF6000"/>
<stop offset="1" stop-color="#FF9700"/>
</linearGradient>
<linearGradient id="paint3_linear_7571_77360" x1="14.3089" y1="8.68752" x2="21.4455" y2="22.253" gradientUnits="userSpaceOnUse">
<stop stop-color="#FFFF18"/>
<stop offset="0.2203" stop-color="#FFCB0E"/>
<stop offset="0.5007" stop-color="#FF8300"/>
<stop offset="0.8867" stop-color="#FF6000"/>
<stop offset="1" stop-color="#FF9700"/>
</linearGradient>
<linearGradient id="paint4_linear_7571_77360" x1="12.7005" y1="4.85474" x2="23.8516" y2="26.0507" gradientUnits="userSpaceOnUse">
<stop stop-color="#FFFF18"/>
<stop offset="0.2203" stop-color="#FFCB0E"/>
<stop offset="0.5007" stop-color="#FF8300"/>
<stop offset="0.8867" stop-color="#FF6000"/>
<stop offset="1" stop-color="#FF9700"/>
</linearGradient>
<linearGradient id="paint5_linear_7571_77360" x1="28.5401" y1="19.685" x2="29.5331" y2="21.9574" gradientUnits="userSpaceOnUse">
<stop stop-color="#FFFF18"/>
<stop offset="0.2203" stop-color="#FFCB0E"/>
<stop offset="0.5007" stop-color="#FF8300"/>
<stop offset="0.8867" stop-color="#FF6000"/>
<stop offset="1" stop-color="#FF9700"/>
</linearGradient>
<linearGradient id="paint6_linear_7571_77360" x1="26.6399" y1="6.14838" x2="27.2491" y2="8.12567" gradientUnits="userSpaceOnUse">
<stop stop-color="#FFFF18"/>
<stop offset="0.2203" stop-color="#FFCB0E"/>
<stop offset="0.5007" stop-color="#FF8300"/>
<stop offset="0.8867" stop-color="#FF6000"/>
<stop offset="1" stop-color="#FF9700"/>
</linearGradient>
<linearGradient id="paint7_linear_7571_77360" x1="23.4371" y1="3.45355" x2="23.8224" y2="5.1761" gradientUnits="userSpaceOnUse">
<stop stop-color="#FFFF18"/>
<stop offset="0.2203" stop-color="#FFCB0E"/>
<stop offset="0.5007" stop-color="#FF8300"/>
<stop offset="0.8867" stop-color="#FF6000"/>
<stop offset="1" stop-color="#FF9700"/>
</linearGradient>
<linearGradient id="paint8_linear_7571_77360" x1="23.4371" y1="26.1245" x2="23.8224" y2="27.847" gradientUnits="userSpaceOnUse">
<stop stop-color="#FFFF18"/>
<stop offset="0.2203" stop-color="#FFCB0E"/>
<stop offset="0.5007" stop-color="#FF8300"/>
<stop offset="0.8867" stop-color="#FF6000"/>
<stop offset="1" stop-color="#FF9700"/>
</linearGradient>
<linearGradient id="paint9_linear_7571_77360" x1="26.6399" y1="23.1484" x2="27.2491" y2="25.1257" gradientUnits="userSpaceOnUse">
<stop stop-color="#FFFF18"/>
<stop offset="0.2203" stop-color="#FFCB0E"/>
<stop offset="0.5007" stop-color="#FF8300"/>
<stop offset="0.8867" stop-color="#FF6000"/>
<stop offset="1" stop-color="#FF9700"/>
</linearGradient>
</defs>
</svg>
