<svg width="32" height="32" viewBox="0 0 32 32" fill="none" xmlns="http://www.w3.org/2000/svg">
<path d="M26.9229 18.5H28.6872C28.869 17.6811 28.9738 16.8433 28.9998 16H27.2132C27.1873 16.8417 27.0901 17.6788 26.9229 18.5Z" fill="#767676"/>
<path d="M28.6872 12.5H26.9229C27.0901 13.3212 27.1873 14.1583 27.2132 15H28.9998C28.9738 14.1567 28.869 13.3189 28.6872 12.5Z" fill="#767676"/>
<path d="M25.7334 9C26.1258 9.79488 26.4446 10.6326 26.6848 11.5H28.4223C28.1577 10.6267 27.8088 9.78842 27.3816 9H25.7334Z" fill="#767676"/>
<path d="M15.1661 23.5005C16.5796 23.5005 17.9613 23.0313 19.1365 22.1522C20.3118 21.2732 21.2278 20.0238 21.7687 18.562C22.3096 17.1001 22.4511 15.4916 22.1754 13.9398C21.8996 12.3879 21.219 10.9625 20.2195 9.84364C19.22 8.72482 17.9466 7.96289 16.5603 7.65421C15.174 7.34553 13.7371 7.50395 12.4312 8.10946C11.1254 8.71496 10.0092 9.74034 9.22395 11.0559C8.43867 12.3715 8.01953 13.9182 8.01953 15.5005C8.02178 17.6214 8.77544 19.6548 10.1152 21.1546C11.4549 22.6543 13.2714 23.498 15.1661 23.5005ZM19.4094 19.109L15.3894 21.709C15.3215 21.7529 15.2445 21.776 15.1661 21.776C15.0877 21.776 15.0107 21.7529 14.9428 21.709L10.9228 19.109C10.8211 19.0422 10.747 18.9331 10.7169 18.8054C10.6867 18.6778 10.7029 18.542 10.7619 18.4276C10.8209 18.3133 10.9179 18.2297 11.0317 18.1951C11.1455 18.1605 11.267 18.1777 11.3695 18.243L15.1661 20.6965L18.9627 18.243C19.0653 18.1777 19.1867 18.1605 19.3005 18.1951C19.4143 18.2297 19.5113 18.3133 19.5703 18.4276C19.6293 18.542 19.6455 18.6778 19.6153 18.8054C19.5852 18.9331 19.5111 19.0422 19.4094 19.109ZM16.0594 15.0005C16.1779 15.0005 16.2915 15.0532 16.3753 15.1469C16.459 15.2407 16.5061 15.3679 16.5061 15.5005C16.5061 15.6331 16.459 15.7603 16.3753 15.854C16.2915 15.9478 16.1779 16.0005 16.0594 16.0005H15.1661V17.0005C15.1661 17.1331 15.119 17.2603 15.0353 17.354C14.9515 17.4478 14.8379 17.5005 14.7194 17.5005C14.601 17.5005 14.4874 17.4478 14.4036 17.354C14.3198 17.2603 14.2728 17.1331 14.2728 17.0005V14.0005C14.2728 13.8679 14.3198 13.7407 14.4036 13.6469C14.4874 13.5532 14.601 13.5005 14.7194 13.5005H16.0594C16.1779 13.5005 16.2915 13.5532 16.3753 13.6469C16.459 13.7407 16.5061 13.8679 16.5061 14.0005C16.5061 14.1331 16.459 14.2603 16.3753 14.354C16.2915 14.4478 16.1779 14.5005 16.0594 14.5005H15.1661V15.0005H16.0594ZM19.186 14.5005H18.7394V17.0005C18.7394 17.1331 18.6923 17.2603 18.6086 17.354C18.5248 17.4478 18.4112 17.5005 18.2927 17.5005C18.1743 17.5005 18.0607 17.4478 17.9769 17.354C17.8931 17.2603 17.8461 17.1331 17.8461 17.0005V14.5005H17.3994C17.2809 14.5005 17.1673 14.4478 17.0836 14.354C16.9998 14.2603 16.9527 14.1331 16.9527 14.0005C16.9527 13.8679 16.9998 13.7407 17.0836 13.6469C17.1673 13.5532 17.2809 13.5005 17.3994 13.5005H19.186C19.3045 13.5005 19.4181 13.5532 19.5019 13.6469C19.5856 13.7407 19.6327 13.8679 19.6327 14.0005C19.6327 14.1331 19.5856 14.2603 19.5019 14.354C19.4181 14.4478 19.3045 14.5005 19.186 14.5005ZM10.9228 11.892L14.9428 9.29199C15.0107 9.24811 15.0877 9.225 15.1661 9.225C15.2445 9.225 15.3215 9.24811 15.3894 9.29199L19.4094 11.892C19.4606 11.9246 19.5055 11.9682 19.5416 12.0203C19.5777 12.0724 19.6042 12.132 19.6197 12.1956C19.6351 12.2593 19.6391 12.3257 19.6315 12.3911C19.624 12.4565 19.6049 12.5195 19.5754 12.5767C19.546 12.6338 19.5067 12.6838 19.4599 12.7238C19.4131 12.7639 19.3597 12.7932 19.3028 12.81C19.2458 12.8269 19.1865 12.831 19.1281 12.822C19.0697 12.8131 19.0135 12.7913 18.9627 12.758L15.1661 10.3045L11.3695 12.758C11.267 12.8232 11.1455 12.8405 11.0317 12.8059C10.9179 12.7713 10.8209 12.6877 10.7619 12.5733C10.7029 12.459 10.6867 12.3232 10.7169 12.1955C10.747 12.0679 10.8211 11.9588 10.9228 11.892ZM10.6995 14.0005C10.6995 13.8932 10.7303 13.7887 10.7874 13.7025C10.8445 13.6163 10.9249 13.553 11.0167 13.5219C11.1084 13.4907 11.2067 13.4935 11.2969 13.5297C11.3872 13.5659 11.4646 13.6337 11.5178 13.723L12.4861 15.3505V14.0005C12.4861 13.8679 12.5332 13.7407 12.617 13.6469C12.7007 13.5532 12.8143 13.5005 12.9328 13.5005C13.0513 13.5005 13.1649 13.5532 13.2486 13.6469C13.3324 13.7407 13.3795 13.8679 13.3795 14.0005V17.0005C13.3795 17.1078 13.3487 17.2123 13.2915 17.2985C13.2344 17.3847 13.1541 17.448 13.0623 17.4791C12.9705 17.5102 12.8723 17.5075 12.782 17.4713C12.6918 17.435 12.6144 17.3673 12.5612 17.278L11.5928 15.6505V17.0005C11.5928 17.1331 11.5458 17.2603 11.462 17.354C11.3782 17.4478 11.2646 17.5005 11.1462 17.5005C11.0277 17.5005 10.9141 17.4478 10.8303 17.354C10.7466 17.2603 10.6995 17.1331 10.6995 17.0005V14.0005Z" fill="#767676"/>
<path d="M15.1665 28C17.375 28 19.534 27.2669 21.3703 25.8934C23.2066 24.5199 24.6379 22.5676 25.483 20.2835C26.3282 17.9995 26.5493 15.4861 26.1185 13.0614C25.6876 10.6366 24.6241 8.40933 23.0624 6.66117C21.5008 4.91301 19.5111 3.7225 17.345 3.24019C15.1789 2.75787 12.9337 3.00542 10.8933 3.95151C8.85286 4.89761 7.10889 6.49976 5.8819 8.55538C4.6549 10.611 4 13.0277 4 15.5C4.0026 18.8143 5.17991 21.992 7.27347 24.3356C9.36703 26.6792 12.2058 27.9971 15.1665 28ZM7.26643 21.183L6.87962 21.433C6.77709 21.4983 6.65566 21.5155 6.54183 21.4809C6.428 21.4463 6.33102 21.3627 6.27204 21.2483C6.21306 21.134 6.19688 20.9982 6.22703 20.8705C6.25718 20.7429 6.33121 20.6338 6.43296 20.567L6.81977 20.317C6.87058 20.2837 6.92679 20.2619 6.98516 20.253C7.04352 20.244 7.10288 20.2481 7.15983 20.265C7.21678 20.2818 7.27019 20.3111 7.31698 20.3512C7.36377 20.3912 7.40303 20.4412 7.43248 20.4983C7.46193 20.5554 7.48101 20.6185 7.4886 20.6839C7.49619 20.7493 7.49215 20.8157 7.47672 20.8793C7.46129 20.943 7.43476 21.0026 7.39867 21.0547C7.36258 21.1068 7.31764 21.1504 7.26643 21.183ZM10.8634 24.8435L10.6401 25.2765C10.6109 25.3338 10.572 25.3841 10.5254 25.4245C10.4789 25.4649 10.4256 25.4946 10.3688 25.5119C10.3119 25.5292 10.2526 25.5337 10.1942 25.5252C10.1358 25.5167 10.0794 25.4954 10.0284 25.4624C9.97742 25.4294 9.93273 25.3855 9.89695 25.3331C9.86117 25.2807 9.835 25.2209 9.81994 25.1572C9.80489 25.0934 9.80124 25.027 9.80922 24.9616C9.8172 24.8963 9.83665 24.8334 9.86644 24.7765L10.0898 24.3435C10.1189 24.2862 10.1578 24.2359 10.2044 24.1955C10.2509 24.1551 10.3042 24.1254 10.361 24.1081C10.4179 24.0908 10.4772 24.0863 10.5356 24.0948C10.594 24.1033 10.6504 24.1246 10.7014 24.1576C10.7524 24.1906 10.7971 24.2345 10.8329 24.2869C10.8687 24.3393 10.8948 24.3991 10.9099 24.4628C10.9249 24.5266 10.9286 24.593 10.9206 24.6584C10.9126 24.7237 10.8932 24.7866 10.8634 24.8435ZM15.6132 26.5C15.6132 26.6326 15.5661 26.7598 15.4824 26.8536C15.3986 26.9473 15.285 27 15.1665 27C15.0481 27 14.9344 26.9473 14.8507 26.8536C14.7669 26.7598 14.7199 26.6326 14.7199 26.5V26C14.7199 25.8674 14.7669 25.7402 14.8507 25.6464C14.9344 25.5527 15.0481 25.5 15.1665 25.5C15.285 25.5 15.3986 25.5527 15.4824 25.6464C15.5661 25.7402 15.6132 25.8674 15.6132 26V26.5ZM20.3031 25.4595C20.2005 25.5258 20.0786 25.5438 19.9642 25.5094C19.8498 25.4751 19.7522 25.3913 19.693 25.2765L19.4696 24.8435C19.4398 24.7866 19.4204 24.7237 19.4124 24.6584C19.4044 24.593 19.4081 24.5266 19.4231 24.4628C19.4382 24.3991 19.4644 24.3393 19.5002 24.2869C19.5359 24.2345 19.5806 24.1906 19.6316 24.1576C19.6826 24.1246 19.739 24.1033 19.7974 24.0948C19.8558 24.0863 19.9151 24.0908 19.972 24.1081C20.0288 24.1254 20.0821 24.1551 20.1286 24.1955C20.1752 24.2359 20.2141 24.2862 20.2433 24.3435L20.4666 24.7765C20.5258 24.8913 20.5419 25.0278 20.5112 25.1559C20.4806 25.284 20.4057 25.3932 20.3031 25.4595ZM24.0635 21.25C24.0043 21.3648 23.9068 21.4486 23.7923 21.483C23.6779 21.5173 23.556 21.4993 23.4534 21.433L23.0666 21.183C23.0154 21.1504 22.9704 21.1068 22.9344 21.0547C22.8983 21.0026 22.8717 20.943 22.8563 20.8793C22.8409 20.8157 22.8368 20.7493 22.8444 20.6839C22.852 20.6185 22.8711 20.5554 22.9005 20.4983C22.93 20.4412 22.9693 20.3912 23.016 20.3512C23.0628 20.3111 23.1162 20.2818 23.1732 20.265C23.2301 20.2481 23.2895 20.244 23.3479 20.253C23.4062 20.2619 23.4624 20.2837 23.5133 20.317L23.9001 20.567C24.0027 20.6333 24.0775 20.7425 24.1082 20.8706C24.1388 20.9987 24.1228 21.1352 24.0635 21.25ZM24.5464 15H24.993C25.1115 15 25.2251 15.0527 25.3089 15.1464C25.3926 15.2402 25.4397 15.3674 25.4397 15.5C25.4397 15.6326 25.3926 15.7598 25.3089 15.8536C25.2251 15.9473 25.1115 16 24.993 16H24.5464C24.4279 16 24.3143 15.9473 24.2305 15.8536C24.1468 15.7598 24.0997 15.6326 24.0997 15.5C24.0997 15.3674 24.1468 15.2402 24.2305 15.1464C24.3143 15.0527 24.4279 15 24.5464 15ZM23.0666 9.817L23.4534 9.567C23.5559 9.50175 23.6774 9.48454 23.7912 9.51913C23.905 9.55372 24.002 9.63731 24.061 9.75166C24.12 9.866 24.1361 10.0018 24.106 10.1295C24.0758 10.2571 24.0018 10.3662 23.9001 10.433L23.5133 10.683C23.4624 10.7164 23.4062 10.7381 23.3479 10.7471C23.2895 10.756 23.2301 10.7519 23.1732 10.7351C23.1162 10.7182 23.0628 10.6889 23.016 10.6488C22.9693 10.6088 22.93 10.5588 22.9005 10.5017C22.8711 10.4446 22.852 10.3815 22.8444 10.3161C22.8368 10.2507 22.8409 10.1843 22.8563 10.1207C22.8717 10.057 22.8983 9.99743 22.9344 9.94532C22.9704 9.8932 23.0154 9.8496 23.0666 9.817ZM19.4696 6.1565L19.693 5.7235C19.7526 5.6096 19.8501 5.52673 19.9641 5.49299C20.0782 5.45924 20.1995 5.47735 20.3016 5.54337C20.4038 5.60939 20.4785 5.71795 20.5094 5.84537C20.5403 5.97279 20.5249 6.10873 20.4666 6.2235L20.2433 6.6565C20.2141 6.71383 20.1752 6.76414 20.1286 6.80454C20.0821 6.84494 20.0288 6.87463 19.972 6.89191C19.9151 6.90919 19.8558 6.91371 19.7974 6.90521C19.739 6.89671 19.6826 6.87536 19.6316 6.84239C19.5806 6.80942 19.5359 6.76548 19.5002 6.71309C19.4644 6.66071 19.4382 6.60093 19.4231 6.53718C19.4081 6.47343 19.4044 6.40697 19.4124 6.34164C19.4204 6.27631 19.4398 6.21339 19.4696 6.1565ZM14.7199 4.50001C14.7199 4.3674 14.7669 4.24022 14.8507 4.14645C14.9344 4.05268 15.0481 4.00001 15.1665 4.00001C15.285 4.00001 15.3986 4.05268 15.4824 4.14645C15.5661 4.24022 15.6132 4.3674 15.6132 4.50001V5.00001C15.6132 5.13261 15.5661 5.25979 15.4824 5.35356C15.3986 5.44733 15.285 5.50001 15.1665 5.50001C15.0481 5.50001 14.9344 5.44733 14.8507 5.35356C14.7669 5.25979 14.7199 5.13261 14.7199 5.00001V4.50001ZM10.0299 5.54051C10.1325 5.4742 10.2544 5.45624 10.3688 5.49056C10.4833 5.52487 10.5808 5.60867 10.6401 5.7235L10.8634 6.1565C10.8932 6.21339 10.9126 6.27631 10.9206 6.34164C10.9286 6.40697 10.9249 6.47343 10.9099 6.53718C10.8948 6.60093 10.8687 6.66071 10.8329 6.71309C10.7971 6.76548 10.7524 6.80942 10.7014 6.84239C10.6504 6.87536 10.594 6.89671 10.5356 6.90521C10.4772 6.91371 10.4179 6.90919 10.361 6.89191C10.3042 6.87463 10.2509 6.84494 10.2044 6.80454C10.1578 6.76414 10.1189 6.71383 10.0898 6.6565L9.86644 6.2235C9.80721 6.10867 9.79116 5.97219 9.82182 5.84411C9.85248 5.71602 9.92733 5.60681 10.0299 5.54051ZM15.1665 6.5C16.7567 6.5 18.3111 7.02785 19.6332 8.01678C20.9554 9.00571 21.9859 10.4113 22.5944 12.0559C23.2029 13.7004 23.3621 15.51 23.0519 17.2558C22.7417 19.0016 21.976 20.6053 20.8516 21.864C19.7272 23.1226 18.2946 23.9798 16.735 24.3271C15.1754 24.6743 13.5589 24.4961 12.0898 23.8149C10.6207 23.1337 9.36502 21.9802 8.48159 20.5001C7.59816 19.0201 7.12662 17.28 7.12662 15.5C7.12911 13.1139 7.97696 10.8263 9.4842 9.13911C10.9914 7.45189 13.035 6.50278 15.1665 6.5ZM6.26948 9.75C6.32872 9.63517 6.42627 9.55137 6.54069 9.51706C6.65512 9.48274 6.77703 9.5007 6.87962 9.567L7.26643 9.817C7.31764 9.8496 7.36258 9.8932 7.39867 9.94532C7.43476 9.99743 7.46129 10.057 7.47672 10.1207C7.49215 10.1843 7.49619 10.2507 7.4886 10.3161C7.48101 10.3815 7.46193 10.4446 7.43248 10.5017C7.40303 10.5588 7.36377 10.6088 7.31698 10.6488C7.27019 10.6889 7.21678 10.7182 7.15983 10.7351C7.10288 10.7519 7.04352 10.756 6.98516 10.7471C6.92679 10.7381 6.87058 10.7164 6.81977 10.683L6.43296 10.433C6.33037 10.3667 6.25552 10.2575 6.22486 10.1294C6.1942 10.0013 6.21025 9.86484 6.26948 9.75ZM5.33998 15H5.78664C5.9051 15 6.01871 15.0527 6.10248 15.1464C6.18624 15.2402 6.2333 15.3674 6.2333 15.5C6.2333 15.6326 6.18624 15.7598 6.10248 15.8536C6.01871 15.9473 5.9051 16 5.78664 16H5.33998C5.22152 16 5.10791 15.9473 5.02415 15.8536C4.94038 15.7598 4.89332 15.6326 4.89332 15.5C4.89332 15.3674 4.94038 15.2402 5.02415 15.1464C5.10791 15.0527 5.22152 15 5.33998 15Z" fill="#767676"/>
<path d="M28.4223 19.5005H26.6848C26.4446 20.3679 26.1258 21.2056 25.7334 22.0005H27.3816C27.8088 21.2121 28.1577 20.3738 28.4223 19.5005Z" fill="#767676"/>
<path d="M25.0904 6H23.7236C24.2683 6.61236 24.7589 7.28213 25.1887 8H26.7743C26.2802 7.26623 25.7155 6.59553 25.0904 6Z" fill="#767676"/>
<path d="M22.7332 5.00008H23.8945C22.8192 4.22073 21.6314 3.65572 20.3838 3.33008C21.222 3.78306 22.0105 4.34348 22.7332 5.00008Z" fill="#767676"/>
<path d="M22.7332 26C22.0105 26.6566 21.222 27.217 20.3838 27.67C21.6314 27.3444 22.8192 26.7793 23.8945 26H22.7332Z" fill="#767676"/>
<path d="M26.7743 22.9995H25.1887C24.7589 23.7174 24.2683 24.3872 23.7236 24.9995H25.0904C25.7155 24.404 26.2802 23.7333 26.7743 22.9995Z" fill="#767676"/>
</svg>
