<svg fill="none" height="24" viewBox="0 0 24 24" width="24" xmlns="http://www.w3.org/2000/svg" xmlns:xlink="http://www.w3.org/1999/xlink">
  <clipPath id="a"><path d="m0 0h24v24h-24z"/></clipPath><g clip-path="url(#a)" fill="#767676">
  <path d="m19.9995 2.2125h-4.924c-.4245-1.283-1.6405-2.2125-3.0725-2.2125-1.4345 0-2.65202.9295-3.07752 2.2125h-4.9245c-.552 0-1 .448-1 1v13.926c0 .054.0075.106.016.1575.0045.028.0095.055.0165.083.02385.0963.06229.1883.114.273.0363.0613.07922.1185.128.1705.0085.009.013.0205.022.029l5.941 5.8605c.18708.1848.43953.2883.7025.288.0065 0 .013-.002.02-.002h10.03852c.552 0 1-.448 1-1v-19.7855c0-.552-.448-1-1-1zm-7.9965-.2125c.681 0 1.235.544 1.235 1.2125 0 .6655-.554 1.207-1.235 1.207-.684 0-1.24-.5415-1.24-1.207 0-.6685.5565-1.2125 1.24-1.2125zm-3.06252 18.609-2.5035-2.469h2.5035zm10.05902 1.389h-8.058v-4.86c0-.552-.448-1-1.00002-1h-4.94v-11.926h3.9225c.005.0155.0135.029.0185.044.0445.127.0965.25.156.369.012.024.0225.0485.035.0725.06778.1272.14412.24965.2285.3665.018.0255.0375.0495.056.074.087.114.179.2235.28.3245.004.004.0075.0085.011.0125.1045.1035.218.1975.33552.286.0255.019.0505.0385.077.057.1184.0845.2424.161.371.229.0205.0105.042.0195.0625.03.1212.06009.2462.11252.374.157.024.0085.047.018.071.026.1422.04552.2874.08111.4345.1065.032.0055.0645.01.097.0145.1545.0225.311.038.4715.038s.3165-.0155.4705-.038c.0322-.00431.0644-.00914.0965-.0145.1471-.02539.2923-.06098.4345-.1065.0235-.0075.046-.017.0695-.025.1285-.04486.2541-.0978.376-.1585.02-.01.0405-.0185.0605-.029.1291-.06803.2534-.14488.372-.23.025-.018.0495-.0365.074-.055.1185-.0895.2325-.184.337-.288.0025-.0025.0045-.005.007-.008.1025-.103.196-.214.284-.33.018-.024.0365-.047.054-.0715.0848-.11734.1613-.24047.229-.3685.012-.023.0225-.047.034-.07.06-.12.1125-.2435.157-.371.005-.015.0135-.0285.0185-.0435h3.9225z"/><path d="m15.8745 7.96777h-7.74755c-.5525 0-1 .4475-1 1v.5515c0 .55203.448 1.00003 1 1.00003h7.74755c.552 0 1-.448 1-1.00003v-.5515c0-.552-.448-1-1-1zm.0345 4.03403h-7.74755c-.552 0-1 .448-1 1v.552c0 .552.448 1 1 1h7.74755c.552 0 1-.448 1-1v-.552c0-.5525-.4475-1-1-1zm-.0345 4.138h-2.7555c-.552 0-1 .448-1 1v.5515c0 .552.448 1 1 1h2.7555c.552 0 1-.448 1-1v-.5515c0-.552-.448-1-1-1z"/></g>
</svg>