<svg width="24" height="24" viewBox="0 0 24 24" fill="none" xmlns="http://www.w3.org/2000/svg">
<g clip-path="url(#clip0_3010_58)">
<path d="M17.4099 3.92878C17.3646 3.78949 17.2812 3.66563 17.1692 3.57121C17.0572 3.47678 16.9211 3.41555 16.7761 3.39441L13.9644 2.98575L12.7065 0.437531C12.6417 0.306158 12.5415 0.195541 12.4171 0.118213C12.2927 0.040884 12.1492 -6.64334e-05 12.0027 8.08987e-08C11.8562 -6.4293e-05 11.7127 0.0408865 11.5883 0.118214C11.4639 0.195542 11.3636 0.306157 11.2989 0.437531L10.041 2.9858L7.22877 3.39445C7.08382 3.41559 6.94766 3.47682 6.83566 3.57125C6.72367 3.66568 6.6403 3.78953 6.59498 3.92883C6.54966 4.06816 6.54427 4.2174 6.57941 4.35964C6.61456 4.50188 6.68883 4.63143 6.79382 4.73363L8.82918 6.71709L8.34824 9.51759C8.32343 9.662 8.33954 9.81047 8.39473 9.94619C8.44993 10.0819 8.54202 10.1995 8.66057 10.2856C8.90287 10.4619 9.22335 10.4836 9.48759 10.3454L12.0029 9.02311L14.5177 10.3454C14.6474 10.4136 14.7936 10.4442 14.9397 10.4336C15.0859 10.423 15.2262 10.3718 15.3447 10.2856C15.4632 10.1995 15.5553 10.082 15.6105 9.94633C15.6657 9.81065 15.6818 9.66224 15.657 9.51788L15.1766 6.71709L17.2114 4.73363C17.3162 4.63129 17.3903 4.50171 17.4254 4.3595C17.4605 4.21729 17.4551 4.06811 17.4099 3.92878ZM15.1405 11.9618H8.85974C8.42615 11.9618 8.07463 12.3133 8.07463 12.7469V24H15.9256V12.7469C15.9256 12.3133 15.5741 11.9618 15.1405 11.9618ZM1.00874 15.1022C0.575148 15.1022 0.223633 15.4537 0.223633 15.8873V23.3793C0.223633 23.7221 0.501555 24 0.844352 24H6.50446V15.1022H1.00874ZM22.9915 18.2426H17.4959V24H23.156C23.4988 24 23.7767 23.7221 23.7767 23.3793V19.0277C23.7766 18.5941 23.4251 18.2426 22.9915 18.2426Z" fill="#767676"/>
</g>
<defs>
<clipPath id="clip0_3010_58">
<rect width="24" height="24" fill="white"/>
</clipPath>
</defs>
</svg>
