<svg width="32" height="32" viewBox="0 0 32 32" fill="none" xmlns="http://www.w3.org/2000/svg">
<path d="M12.5899 7.03781L11.2713 5.19413C11.1995 5.09487 11.0916 5.02765 10.9709 5.00683C10.8501 4.98601 10.726 5.01324 10.625 5.0827C10.5266 5.15603 10.4601 5.26446 10.4394 5.38549C10.4188 5.50652 10.4455 5.63085 10.5141 5.7327L11.7514 7.46774C12.0089 7.28504 12.2913 7.14025 12.5899 7.03781Z" fill="#767676"/>
<path d="M16.6902 5.72032C16.7481 5.61851 16.7655 5.49856 16.7387 5.38451C16.7119 5.27047 16.643 5.17076 16.5458 5.10539C16.4486 5.04001 16.3302 5.0138 16.2145 5.03201C16.0988 5.05022 15.9942 5.1115 15.9218 5.20357L14.7109 7.02032C15.009 7.11654 15.2918 7.25474 15.5508 7.43075L16.6902 5.72032Z" fill="#767676"/>
<path d="M13.6786 7.78323C13.2228 7.78087 12.7761 7.91134 12.3932 8.1587C12.0103 8.40605 11.7077 8.75958 11.5225 9.17609H15.8347C15.6495 8.75958 15.3469 8.40605 14.964 8.1587C14.5811 7.91134 14.1344 7.78087 13.6786 7.78323Z" fill="#767676"/>
<path d="M13.6779 23.5686C14.7798 23.5686 15.857 23.2419 16.7732 22.6297C17.6894 22.0175 18.4035 21.1474 18.8252 20.1293C19.2469 19.1113 19.3572 17.991 19.1422 16.9103C18.9273 15.8295 18.3966 14.8368 17.6175 14.0576C16.8383 13.2784 15.8456 12.7478 14.7648 12.5328C13.6841 12.3179 12.5638 12.4282 11.5458 12.8499C10.5277 13.2716 9.6576 13.9857 9.0454 14.9019C8.4332 15.8181 8.10645 16.8953 8.10645 17.9972C8.10804 19.4744 8.69554 20.8905 9.74004 21.935C10.7845 22.9795 12.2007 23.567 13.6779 23.5686ZM11.8207 15.68C11.8186 15.5031 11.8673 15.3294 11.9609 15.1794C12.0546 15.0293 12.1893 14.9093 12.3491 14.8336C12.5016 14.7605 12.672 14.7328 12.8398 14.7537C13.0077 14.7747 13.1659 14.8435 13.2958 14.952L16.1223 17.2692C16.2291 17.3581 16.3151 17.4694 16.374 17.5952C16.433 17.721 16.4636 17.8583 16.4636 17.9972C16.4636 18.1362 16.433 18.2734 16.374 18.3992C16.3151 18.525 16.2291 18.6363 16.1223 18.7252L13.2953 21.0429C13.1655 21.1512 13.0073 21.2198 12.8395 21.2408C12.6718 21.2617 12.5015 21.2339 12.3491 21.1609C12.1893 21.0851 12.0546 20.9651 11.9609 20.8151C11.8673 20.665 11.8186 20.4913 11.8207 20.3145V15.68Z" fill="#767676"/>
<path d="M3 24.0336C3.00074 24.649 3.24555 25.239 3.68074 25.6742C4.11594 26.1094 4.70597 26.3542 5.32143 26.355H22.0357C22.6512 26.3542 23.2412 26.1094 23.6764 25.6742C24.1116 25.239 24.3564 24.649 24.3571 24.0336V22.2878C24.3572 22.2088 24.3775 22.1311 24.416 22.062C24.4545 21.993 24.51 21.935 24.5773 21.8934C24.6445 21.8518 24.7212 21.8281 24.8002 21.8245C24.8792 21.8209 24.9578 21.8375 25.0285 21.8728L28.33 23.521C28.4008 23.5559 28.4793 23.5723 28.5582 23.5685C28.637 23.5647 28.7136 23.5408 28.7806 23.4992C28.8477 23.4575 28.903 23.3995 28.9414 23.3305C28.9798 23.2615 29 23.1839 29 23.105V13.355C29 13.276 28.9797 13.1983 28.9413 13.1292C28.9028 13.0602 28.8474 13.0021 28.7802 12.9605C28.713 12.9189 28.6363 12.8951 28.5574 12.8914C28.4784 12.8878 28.3999 12.9043 28.3291 12.9394L25.0285 14.5872C24.9578 14.6224 24.8792 14.6391 24.8002 14.6354C24.7212 14.6318 24.6445 14.6081 24.5773 14.5665C24.51 14.525 24.4545 14.4669 24.416 14.3979C24.3775 14.3289 24.3572 14.2512 24.3571 14.1721V12.4264C24.3564 11.811 24.1116 11.2209 23.6764 10.7857C23.2412 10.3505 22.6512 10.1057 22.0357 10.105H5.32143C4.70597 10.1057 4.11594 10.3505 3.68074 10.7857C3.24555 11.2209 3.00074 11.811 3 12.4264V24.0336ZM13.6786 11.4978C14.9641 11.4978 16.2209 11.8791 17.2898 12.5933C18.3587 13.3075 19.1918 14.3227 19.6838 15.5104C20.1758 16.6981 20.3045 18.005 20.0537 19.2659C19.8029 20.5268 19.1838 21.685 18.2748 22.594C17.3657 23.5031 16.2075 24.1221 14.9467 24.3729C13.6858 24.6237 12.3788 24.495 11.1911 24.0031C10.0034 23.5111 8.98825 22.678 8.27402 21.609C7.55979 20.5401 7.17857 19.2834 7.17857 17.9978C7.18041 16.2745 7.86583 14.6223 9.08441 13.4037C10.303 12.1851 11.9552 11.4997 13.6786 11.4978Z" fill="#767676"/>
<path d="M15.5341 18.0076L12.708 15.6699L12.7507 20.3146L15.5341 18.0076Z" fill="#767676"/>
</svg>
